%TF.GenerationSoftware,KiCad,Pcbnew,9.0.0*%
%TF.CreationDate,2025-03-04T12:47:50-05:00*%
%TF.ProjectId,TermoINteligente,5465726d-6f49-44e7-9465-6c6967656e74,rev?*%
%TF.SameCoordinates,Original*%
%TF.FileFunction,Soldermask,Bot*%
%TF.FilePolarity,Negative*%
%FSLAX46Y46*%
G04 Gerber Fmt 4.6, Leading zero omitted, Abs format (unit mm)*
G04 Created by KiCad (PCBNEW 9.0.0) date 2025-03-04 12:47:50*
%MOMM*%
%LPD*%
G01*
G04 APERTURE LIST*
%ADD10R,1.530000X1.530000*%
%ADD11C,1.530000*%
%ADD12R,1.700000X1.700000*%
%ADD13O,1.700000X1.700000*%
%ADD14C,3.200000*%
%ADD15C,1.600000*%
%ADD16O,1.600000X1.600000*%
%ADD17R,2.000000X2.000000*%
%ADD18C,2.000000*%
G04 APERTURE END LIST*
D10*
%TO.C,U1*%
X130100000Y-81180000D03*
D11*
X130100000Y-83720000D03*
X130100000Y-86260000D03*
X130100000Y-88800000D03*
X130100000Y-91340000D03*
X130100000Y-93880000D03*
X130100000Y-96420000D03*
X130100000Y-98960000D03*
X130100000Y-101500000D03*
X130100000Y-104040000D03*
X130100000Y-106580000D03*
X130100000Y-109120000D03*
X130100000Y-111660000D03*
X130100000Y-114200000D03*
X130100000Y-116740000D03*
X130100000Y-119280000D03*
X130100000Y-121820000D03*
X130100000Y-124360000D03*
X130100000Y-126900000D03*
X155500000Y-126900000D03*
X155500000Y-124360000D03*
X155500000Y-121820000D03*
X155500000Y-119280000D03*
X155500000Y-116740000D03*
X155500000Y-114200000D03*
X155500000Y-111660000D03*
X155500000Y-109120000D03*
X155500000Y-106580000D03*
X155500000Y-104040000D03*
X155500000Y-101500000D03*
X155500000Y-98960000D03*
X155500000Y-96420000D03*
X155500000Y-93880000D03*
X155500000Y-91340000D03*
X155500000Y-88800000D03*
X155500000Y-86260000D03*
X155500000Y-83720000D03*
X155500000Y-81180000D03*
%TD*%
D12*
%TO.C,J2*%
X177500000Y-122940000D03*
D13*
X177500000Y-120400000D03*
X177500000Y-117860000D03*
%TD*%
D12*
%TO.C,J1*%
X169500000Y-85900000D03*
D13*
X172040000Y-85900000D03*
X174580000Y-85900000D03*
X177120000Y-85900000D03*
%TD*%
D14*
%TO.C,REF\u002A\u002A*%
X185500000Y-66500000D03*
%TD*%
%TO.C,REF\u002A\u002A*%
X124500000Y-133000000D03*
%TD*%
%TO.C,REF\u002A\u002A*%
X185500000Y-133000000D03*
%TD*%
D15*
%TO.C,R1*%
X168000000Y-114400000D03*
D16*
X168000000Y-124560000D03*
%TD*%
D17*
%TO.C,BZ1*%
X173500000Y-97900000D03*
D18*
X173500000Y-105500000D03*
%TD*%
D14*
%TO.C,REF\u002A\u002A*%
X124500000Y-66500000D03*
%TD*%
M02*
