%TF.GenerationSoftware,KiCad,Pcbnew,9.0.0*%
%TF.CreationDate,2025-03-04T12:47:50-05:00*%
%TF.ProjectId,TermoINteligente,5465726d-6f49-44e7-9465-6c6967656e74,rev?*%
%TF.SameCoordinates,Original*%
%TF.FileFunction,Copper,L1,Top*%
%TF.FilePolarity,Positive*%
%FSLAX46Y46*%
G04 Gerber Fmt 4.6, Leading zero omitted, Abs format (unit mm)*
G04 Created by KiCad (PCBNEW 9.0.0) date 2025-03-04 12:47:50*
%MOMM*%
%LPD*%
G01*
G04 APERTURE LIST*
%TA.AperFunction,ComponentPad*%
%ADD10R,1.530000X1.530000*%
%TD*%
%TA.AperFunction,ComponentPad*%
%ADD11C,1.530000*%
%TD*%
%TA.AperFunction,ComponentPad*%
%ADD12R,1.700000X1.700000*%
%TD*%
%TA.AperFunction,ComponentPad*%
%ADD13O,1.700000X1.700000*%
%TD*%
%TA.AperFunction,ComponentPad*%
%ADD14C,1.600000*%
%TD*%
%TA.AperFunction,ComponentPad*%
%ADD15O,1.600000X1.600000*%
%TD*%
%TA.AperFunction,ComponentPad*%
%ADD16R,2.000000X2.000000*%
%TD*%
%TA.AperFunction,ComponentPad*%
%ADD17C,2.000000*%
%TD*%
G04 APERTURE END LIST*
D10*
%TO.P,U1,1,3V3*%
%TO.N,VDD*%
X130100000Y-81180000D03*
D11*
%TO.P,U1,2,EN*%
%TO.N,unconnected-(U1-EN-Pad2)*%
X130100000Y-83720000D03*
%TO.P,U1,3,SENSOR_VP*%
%TO.N,unconnected-(U1-SENSOR_VP-Pad3)*%
X130100000Y-86260000D03*
%TO.P,U1,4,SENSOR_VN*%
%TO.N,unconnected-(U1-SENSOR_VN-Pad4)*%
X130100000Y-88800000D03*
%TO.P,U1,5,IO34*%
%TO.N,unconnected-(U1-IO34-Pad5)*%
X130100000Y-91340000D03*
%TO.P,U1,6,IO35*%
%TO.N,unconnected-(U1-IO35-Pad6)*%
X130100000Y-93880000D03*
%TO.P,U1,7,IO32*%
%TO.N,unconnected-(U1-IO32-Pad7)*%
X130100000Y-96420000D03*
%TO.P,U1,8,IO33*%
%TO.N,unconnected-(U1-IO33-Pad8)*%
X130100000Y-98960000D03*
%TO.P,U1,9,IO25*%
%TO.N,unconnected-(U1-IO25-Pad9)*%
X130100000Y-101500000D03*
%TO.P,U1,10,IO26*%
%TO.N,unconnected-(U1-IO26-Pad10)*%
X130100000Y-104040000D03*
%TO.P,U1,11,IO27*%
%TO.N,unconnected-(U1-IO27-Pad11)*%
X130100000Y-106580000D03*
%TO.P,U1,12,IO14*%
%TO.N,unconnected-(U1-IO14-Pad12)*%
X130100000Y-109120000D03*
%TO.P,U1,13,IO12*%
%TO.N,unconnected-(U1-IO12-Pad13)*%
X130100000Y-111660000D03*
%TO.P,U1,14,GND1*%
%TO.N,GND*%
X130100000Y-114200000D03*
%TO.P,U1,15,IO13*%
%TO.N,unconnected-(U1-IO13-Pad15)*%
X130100000Y-116740000D03*
%TO.P,U1,16,SD2*%
%TO.N,unconnected-(U1-SD2-Pad16)*%
X130100000Y-119280000D03*
%TO.P,U1,17,SD3*%
%TO.N,unconnected-(U1-SD3-Pad17)*%
X130100000Y-121820000D03*
%TO.P,U1,18,CMD*%
%TO.N,unconnected-(U1-CMD-Pad18)*%
X130100000Y-124360000D03*
%TO.P,U1,19,EXT_5V*%
%TO.N,VCC*%
X130100000Y-126900000D03*
%TO.P,U1,20,CLK*%
%TO.N,unconnected-(U1-CLK-Pad20)*%
X155500000Y-126900000D03*
%TO.P,U1,21,SD0*%
%TO.N,unconnected-(U1-SD0-Pad21)*%
X155500000Y-124360000D03*
%TO.P,U1,22,SD1*%
%TO.N,unconnected-(U1-SD1-Pad22)*%
X155500000Y-121820000D03*
%TO.P,U1,23,IO15*%
%TO.N,unconnected-(U1-IO15-Pad23)*%
X155500000Y-119280000D03*
%TO.P,U1,24,IO2*%
%TO.N,unconnected-(U1-IO2-Pad24)*%
X155500000Y-116740000D03*
%TO.P,U1,25,IO0*%
%TO.N,unconnected-(U1-IO0-Pad25)*%
X155500000Y-114200000D03*
%TO.P,U1,26,IO4*%
%TO.N,DQ*%
X155500000Y-111660000D03*
%TO.P,U1,27,IO16*%
%TO.N,unconnected-(U1-IO16-Pad27)*%
X155500000Y-109120000D03*
%TO.P,U1,28,IO17*%
%TO.N,unconnected-(U1-IO17-Pad28)*%
X155500000Y-106580000D03*
%TO.P,U1,29,IO5*%
%TO.N,BZ1+*%
X155500000Y-104040000D03*
%TO.P,U1,30,IO18*%
%TO.N,unconnected-(U1-IO18-Pad30)*%
X155500000Y-101500000D03*
%TO.P,U1,31,IO19*%
%TO.N,unconnected-(U1-IO19-Pad31)*%
X155500000Y-98960000D03*
%TO.P,U1,32,GND2*%
%TO.N,unconnected-(U1-GND2-Pad32)*%
X155500000Y-96420000D03*
%TO.P,U1,33,IO21*%
%TO.N,SDA*%
X155500000Y-93880000D03*
%TO.P,U1,34,RXD0*%
%TO.N,unconnected-(U1-RXD0-Pad34)*%
X155500000Y-91340000D03*
%TO.P,U1,35,TXD0*%
%TO.N,unconnected-(U1-TXD0-Pad35)*%
X155500000Y-88800000D03*
%TO.P,U1,36,IO22*%
%TO.N,SCL*%
X155500000Y-86260000D03*
%TO.P,U1,37,IO23*%
%TO.N,unconnected-(U1-IO23-Pad37)*%
X155500000Y-83720000D03*
%TO.P,U1,38,GND3*%
%TO.N,unconnected-(U1-GND3-Pad38)*%
X155500000Y-81180000D03*
%TD*%
D12*
%TO.P,J2,1,Pin_1*%
%TO.N,GND*%
X177500000Y-122940000D03*
D13*
%TO.P,J2,2,Pin_2*%
%TO.N,DQ*%
X177500000Y-120400000D03*
%TO.P,J2,3,Pin_3*%
%TO.N,VDD*%
X177500000Y-117860000D03*
%TD*%
D12*
%TO.P,J1,1,Pin_1*%
%TO.N,SCL*%
X169500000Y-85900000D03*
D13*
%TO.P,J1,2,Pin_2*%
%TO.N,SDA*%
X172040000Y-85900000D03*
%TO.P,J1,3,Pin_3*%
%TO.N,VCC*%
X174580000Y-85900000D03*
%TO.P,J1,4,Pin_4*%
%TO.N,GND*%
X177120000Y-85900000D03*
%TD*%
D14*
%TO.P,R1,1*%
%TO.N,VDD*%
X168000000Y-114400000D03*
D15*
%TO.P,R1,2*%
%TO.N,DQ*%
X168000000Y-124560000D03*
%TD*%
D16*
%TO.P,BZ1,1,+*%
%TO.N,BZ1+*%
X173500000Y-97900000D03*
D17*
%TO.P,BZ1,2,-*%
%TO.N,GND*%
X173500000Y-105500000D03*
%TD*%
M02*
