M48
; DRILL file {KiCad 9.0.0} date 2025-03-04T12:47:53-0500
; FORMAT={-:-/ absolute / metric / decimal}
; #@! TF.CreationDate,2025-03-04T12:47:53-05:00
; #@! TF.GenerationSoftware,Kicad,Pcbnew,9.0.0
; #@! TF.FileFunction,Plated,1,2,PTH
FMAT,2
METRIC
; #@! TA.AperFunction,Plated,PTH,ComponentDrill
T1C0.800
; #@! TA.AperFunction,Plated,PTH,ComponentDrill
T2C1.000
; #@! TA.AperFunction,Plated,PTH,ComponentDrill
T3C1.020
%
G90
G05
T1
X168.0Y-114.4
X168.0Y-124.56
T2
X169.5Y-85.9
X172.04Y-85.9
X173.5Y-97.9
X173.5Y-105.5
X174.58Y-85.9
X177.12Y-85.9
X177.5Y-117.86
X177.5Y-120.4
X177.5Y-122.94
T3
X130.1Y-81.18
X130.1Y-83.72
X130.1Y-86.26
X130.1Y-88.8
X130.1Y-91.34
X130.1Y-93.88
X130.1Y-96.42
X130.1Y-98.96
X130.1Y-101.5
X130.1Y-104.04
X130.1Y-106.58
X130.1Y-109.12
X130.1Y-111.66
X130.1Y-114.2
X130.1Y-116.74
X130.1Y-119.28
X130.1Y-121.82
X130.1Y-124.36
X130.1Y-126.9
X155.5Y-81.18
X155.5Y-83.72
X155.5Y-86.26
X155.5Y-88.8
X155.5Y-91.34
X155.5Y-93.88
X155.5Y-96.42
X155.5Y-98.96
X155.5Y-101.5
X155.5Y-104.04
X155.5Y-106.58
X155.5Y-109.12
X155.5Y-111.66
X155.5Y-114.2
X155.5Y-116.74
X155.5Y-119.28
X155.5Y-121.82
X155.5Y-124.36
X155.5Y-126.9
M30
