%TF.GenerationSoftware,KiCad,Pcbnew,9.0.0*%
%TF.CreationDate,2025-03-04T12:47:50-05:00*%
%TF.ProjectId,TermoINteligente,5465726d-6f49-44e7-9465-6c6967656e74,rev?*%
%TF.SameCoordinates,Original*%
%TF.FileFunction,Copper,L2,Bot*%
%TF.FilePolarity,Positive*%
%FSLAX46Y46*%
G04 Gerber Fmt 4.6, Leading zero omitted, Abs format (unit mm)*
G04 Created by KiCad (PCBNEW 9.0.0) date 2025-03-04 12:47:50*
%MOMM*%
%LPD*%
G01*
G04 APERTURE LIST*
%TA.AperFunction,ComponentPad*%
%ADD10R,1.530000X1.530000*%
%TD*%
%TA.AperFunction,ComponentPad*%
%ADD11C,1.530000*%
%TD*%
%TA.AperFunction,ComponentPad*%
%ADD12R,1.700000X1.700000*%
%TD*%
%TA.AperFunction,ComponentPad*%
%ADD13O,1.700000X1.700000*%
%TD*%
%TA.AperFunction,ComponentPad*%
%ADD14C,1.600000*%
%TD*%
%TA.AperFunction,ComponentPad*%
%ADD15O,1.600000X1.600000*%
%TD*%
%TA.AperFunction,ComponentPad*%
%ADD16R,2.000000X2.000000*%
%TD*%
%TA.AperFunction,ComponentPad*%
%ADD17C,2.000000*%
%TD*%
%TA.AperFunction,Conductor*%
%ADD18C,1.000000*%
%TD*%
%TA.AperFunction,Conductor*%
%ADD19C,0.600000*%
%TD*%
G04 APERTURE END LIST*
D10*
%TO.P,U1,1,3V3*%
%TO.N,VDD*%
X130100000Y-81180000D03*
D11*
%TO.P,U1,2,EN*%
%TO.N,unconnected-(U1-EN-Pad2)*%
X130100000Y-83720000D03*
%TO.P,U1,3,SENSOR_VP*%
%TO.N,unconnected-(U1-SENSOR_VP-Pad3)*%
X130100000Y-86260000D03*
%TO.P,U1,4,SENSOR_VN*%
%TO.N,unconnected-(U1-SENSOR_VN-Pad4)*%
X130100000Y-88800000D03*
%TO.P,U1,5,IO34*%
%TO.N,unconnected-(U1-IO34-Pad5)*%
X130100000Y-91340000D03*
%TO.P,U1,6,IO35*%
%TO.N,unconnected-(U1-IO35-Pad6)*%
X130100000Y-93880000D03*
%TO.P,U1,7,IO32*%
%TO.N,unconnected-(U1-IO32-Pad7)*%
X130100000Y-96420000D03*
%TO.P,U1,8,IO33*%
%TO.N,unconnected-(U1-IO33-Pad8)*%
X130100000Y-98960000D03*
%TO.P,U1,9,IO25*%
%TO.N,unconnected-(U1-IO25-Pad9)*%
X130100000Y-101500000D03*
%TO.P,U1,10,IO26*%
%TO.N,unconnected-(U1-IO26-Pad10)*%
X130100000Y-104040000D03*
%TO.P,U1,11,IO27*%
%TO.N,unconnected-(U1-IO27-Pad11)*%
X130100000Y-106580000D03*
%TO.P,U1,12,IO14*%
%TO.N,unconnected-(U1-IO14-Pad12)*%
X130100000Y-109120000D03*
%TO.P,U1,13,IO12*%
%TO.N,unconnected-(U1-IO12-Pad13)*%
X130100000Y-111660000D03*
%TO.P,U1,14,GND1*%
%TO.N,GND*%
X130100000Y-114200000D03*
%TO.P,U1,15,IO13*%
%TO.N,unconnected-(U1-IO13-Pad15)*%
X130100000Y-116740000D03*
%TO.P,U1,16,SD2*%
%TO.N,unconnected-(U1-SD2-Pad16)*%
X130100000Y-119280000D03*
%TO.P,U1,17,SD3*%
%TO.N,unconnected-(U1-SD3-Pad17)*%
X130100000Y-121820000D03*
%TO.P,U1,18,CMD*%
%TO.N,unconnected-(U1-CMD-Pad18)*%
X130100000Y-124360000D03*
%TO.P,U1,19,EXT_5V*%
%TO.N,VCC*%
X130100000Y-126900000D03*
%TO.P,U1,20,CLK*%
%TO.N,unconnected-(U1-CLK-Pad20)*%
X155500000Y-126900000D03*
%TO.P,U1,21,SD0*%
%TO.N,unconnected-(U1-SD0-Pad21)*%
X155500000Y-124360000D03*
%TO.P,U1,22,SD1*%
%TO.N,unconnected-(U1-SD1-Pad22)*%
X155500000Y-121820000D03*
%TO.P,U1,23,IO15*%
%TO.N,unconnected-(U1-IO15-Pad23)*%
X155500000Y-119280000D03*
%TO.P,U1,24,IO2*%
%TO.N,unconnected-(U1-IO2-Pad24)*%
X155500000Y-116740000D03*
%TO.P,U1,25,IO0*%
%TO.N,unconnected-(U1-IO0-Pad25)*%
X155500000Y-114200000D03*
%TO.P,U1,26,IO4*%
%TO.N,DQ*%
X155500000Y-111660000D03*
%TO.P,U1,27,IO16*%
%TO.N,unconnected-(U1-IO16-Pad27)*%
X155500000Y-109120000D03*
%TO.P,U1,28,IO17*%
%TO.N,unconnected-(U1-IO17-Pad28)*%
X155500000Y-106580000D03*
%TO.P,U1,29,IO5*%
%TO.N,BZ1+*%
X155500000Y-104040000D03*
%TO.P,U1,30,IO18*%
%TO.N,unconnected-(U1-IO18-Pad30)*%
X155500000Y-101500000D03*
%TO.P,U1,31,IO19*%
%TO.N,unconnected-(U1-IO19-Pad31)*%
X155500000Y-98960000D03*
%TO.P,U1,32,GND2*%
%TO.N,unconnected-(U1-GND2-Pad32)*%
X155500000Y-96420000D03*
%TO.P,U1,33,IO21*%
%TO.N,SDA*%
X155500000Y-93880000D03*
%TO.P,U1,34,RXD0*%
%TO.N,unconnected-(U1-RXD0-Pad34)*%
X155500000Y-91340000D03*
%TO.P,U1,35,TXD0*%
%TO.N,unconnected-(U1-TXD0-Pad35)*%
X155500000Y-88800000D03*
%TO.P,U1,36,IO22*%
%TO.N,SCL*%
X155500000Y-86260000D03*
%TO.P,U1,37,IO23*%
%TO.N,unconnected-(U1-IO23-Pad37)*%
X155500000Y-83720000D03*
%TO.P,U1,38,GND3*%
%TO.N,unconnected-(U1-GND3-Pad38)*%
X155500000Y-81180000D03*
%TD*%
D12*
%TO.P,J2,1,Pin_1*%
%TO.N,GND*%
X177500000Y-122940000D03*
D13*
%TO.P,J2,2,Pin_2*%
%TO.N,DQ*%
X177500000Y-120400000D03*
%TO.P,J2,3,Pin_3*%
%TO.N,VDD*%
X177500000Y-117860000D03*
%TD*%
D12*
%TO.P,J1,1,Pin_1*%
%TO.N,SCL*%
X169500000Y-85900000D03*
D13*
%TO.P,J1,2,Pin_2*%
%TO.N,SDA*%
X172040000Y-85900000D03*
%TO.P,J1,3,Pin_3*%
%TO.N,VCC*%
X174580000Y-85900000D03*
%TO.P,J1,4,Pin_4*%
%TO.N,GND*%
X177120000Y-85900000D03*
%TD*%
D14*
%TO.P,R1,1*%
%TO.N,VDD*%
X168000000Y-114400000D03*
D15*
%TO.P,R1,2*%
%TO.N,DQ*%
X168000000Y-124560000D03*
%TD*%
D16*
%TO.P,BZ1,1,+*%
%TO.N,BZ1+*%
X173500000Y-97900000D03*
D17*
%TO.P,BZ1,2,-*%
%TO.N,GND*%
X173500000Y-105500000D03*
%TD*%
D18*
%TO.N,GND*%
X132700000Y-114200000D02*
X133500000Y-115000000D01*
X130100000Y-114200000D02*
X132700000Y-114200000D01*
X127800000Y-114200000D02*
X127000000Y-115000000D01*
X130100000Y-114200000D02*
X127800000Y-114200000D01*
%TO.N,VCC*%
X145500000Y-111500000D02*
X130100000Y-126900000D01*
X166400000Y-76900000D02*
X145500000Y-76900000D01*
X145500000Y-76900000D02*
X145500000Y-111500000D01*
X174580000Y-85080000D02*
X166400000Y-76900000D01*
X174580000Y-85900000D02*
X174580000Y-85080000D01*
D19*
%TO.N,SDA*%
X165262081Y-93880000D02*
X155500000Y-93880000D01*
X172040000Y-85900000D02*
X172040000Y-87102081D01*
X172040000Y-87102081D02*
X165262081Y-93880000D01*
%TO.N,BZ1+*%
X173500000Y-97900000D02*
X161640000Y-97900000D01*
X161640000Y-97900000D02*
X155500000Y-104040000D01*
%TO.N,SCL*%
X155860000Y-85900000D02*
X155500000Y-86260000D01*
X169500000Y-85900000D02*
X155860000Y-85900000D01*
%TO.N,DQ*%
X161500000Y-119900000D02*
X161500000Y-117660000D01*
X168000000Y-124560000D02*
X166160000Y-124560000D01*
X166160000Y-124560000D02*
X161500000Y-119900000D01*
X161500000Y-117660000D02*
X155500000Y-111660000D01*
X177500000Y-120400000D02*
X174500000Y-120400000D01*
X170340000Y-124560000D02*
X168000000Y-124560000D01*
X174500000Y-120400000D02*
X170340000Y-124560000D01*
%TO.N,VDD*%
X174040000Y-114400000D02*
X168000000Y-114400000D01*
X177500000Y-117860000D02*
X174040000Y-114400000D01*
X168000000Y-107400000D02*
X182500000Y-92900000D01*
X169000000Y-69400000D02*
X128000000Y-69400000D01*
X182500000Y-82900000D02*
X169000000Y-69400000D01*
X168000000Y-114400000D02*
X168000000Y-107400000D01*
X128000000Y-69400000D02*
X128000000Y-79080000D01*
X182500000Y-92900000D02*
X182500000Y-82900000D01*
X128000000Y-79080000D02*
X130100000Y-81180000D01*
%TD*%
%TA.AperFunction,Conductor*%
%TO.N,GND*%
G36*
X168395208Y-70720713D02*
G01*
X168524403Y-70779714D01*
X168607469Y-70846654D01*
X181053346Y-83292531D01*
X181138462Y-83406232D01*
X181188096Y-83539307D01*
X181199500Y-83645377D01*
X181199500Y-92154623D01*
X181179287Y-92295208D01*
X181120286Y-92424403D01*
X181053346Y-92507469D01*
X176352345Y-97208470D01*
X176238644Y-97293586D01*
X176105569Y-97343220D01*
X175963901Y-97353353D01*
X175825116Y-97323162D01*
X175700459Y-97255094D01*
X175600029Y-97154664D01*
X175531961Y-97030007D01*
X175501770Y-96891222D01*
X175500499Y-96855624D01*
X175500499Y-96841969D01*
X175495676Y-96787715D01*
X175489886Y-96722582D01*
X175433909Y-96526951D01*
X175339698Y-96346593D01*
X175305199Y-96304283D01*
X175211110Y-96188891D01*
X175211108Y-96188889D01*
X175053410Y-96060304D01*
X175053407Y-96060302D01*
X174873057Y-95966095D01*
X174873054Y-95966093D01*
X174873049Y-95966091D01*
X174677418Y-95910114D01*
X174558037Y-95899500D01*
X174558029Y-95899500D01*
X172441969Y-95899500D01*
X172322582Y-95910114D01*
X172126953Y-95966090D01*
X172126942Y-95966095D01*
X171946592Y-96060302D01*
X171946589Y-96060304D01*
X171788891Y-96188889D01*
X171788889Y-96188891D01*
X171660304Y-96346589D01*
X171646377Y-96367722D01*
X171643480Y-96365813D01*
X171585155Y-96446792D01*
X171473040Y-96533986D01*
X171340900Y-96586061D01*
X171225874Y-96599500D01*
X161742351Y-96599500D01*
X161537648Y-96599500D01*
X161505626Y-96604571D01*
X161335466Y-96631522D01*
X161238124Y-96663150D01*
X161238123Y-96663151D01*
X161174867Y-96683704D01*
X161140783Y-96694779D01*
X161140781Y-96694779D01*
X161140781Y-96694780D01*
X161086217Y-96722582D01*
X160958388Y-96787713D01*
X160958384Y-96787715D01*
X160792780Y-96908033D01*
X158098819Y-99601994D01*
X157985118Y-99687110D01*
X157852043Y-99736744D01*
X157710375Y-99746877D01*
X157571590Y-99716686D01*
X157446933Y-99648618D01*
X157346503Y-99548187D01*
X157278435Y-99423531D01*
X157248244Y-99284746D01*
X157251242Y-99184016D01*
X157265500Y-99075715D01*
X157265500Y-98844283D01*
X157235293Y-98614836D01*
X157235292Y-98614830D01*
X157175391Y-98391279D01*
X157175390Y-98391276D01*
X157086825Y-98177460D01*
X156971116Y-97977046D01*
X156964556Y-97967229D01*
X156903258Y-97839108D01*
X156880539Y-97698906D01*
X156898240Y-97557983D01*
X156954926Y-97427756D01*
X156964556Y-97412771D01*
X156971116Y-97402953D01*
X157086825Y-97202539D01*
X157175390Y-96988723D01*
X157175392Y-96988719D01*
X157235292Y-96765171D01*
X157265500Y-96535717D01*
X157265500Y-96304283D01*
X157235292Y-96074829D01*
X157175392Y-95851281D01*
X157175390Y-95851276D01*
X157175389Y-95851271D01*
X157171530Y-95839903D01*
X157145479Y-95700283D01*
X157159819Y-95558978D01*
X157213389Y-95427438D01*
X157301848Y-95316318D01*
X157418029Y-95234621D01*
X157552522Y-95188965D01*
X157644046Y-95180500D01*
X165364433Y-95180500D01*
X165566616Y-95148477D01*
X165663957Y-95116848D01*
X165761300Y-95085220D01*
X165852495Y-95038753D01*
X165943692Y-94992287D01*
X166109300Y-94871966D01*
X173031966Y-87949300D01*
X173152287Y-87783692D01*
X173152297Y-87783671D01*
X173160336Y-87770555D01*
X173251024Y-87661246D01*
X173368833Y-87581915D01*
X173504221Y-87538988D01*
X173646219Y-87535943D01*
X173776765Y-87570256D01*
X173983900Y-87656054D01*
X174218211Y-87718838D01*
X174218215Y-87718838D01*
X174218218Y-87718839D01*
X174458712Y-87750500D01*
X174701288Y-87750500D01*
X174941781Y-87718839D01*
X174941779Y-87718839D01*
X174941789Y-87718838D01*
X175176100Y-87656054D01*
X175400212Y-87563224D01*
X175601004Y-87447296D01*
X175732854Y-87394512D01*
X175874241Y-87381010D01*
X176013705Y-87407889D01*
X176100001Y-87447299D01*
X176300008Y-87562773D01*
X176524059Y-87655578D01*
X176619999Y-87681284D01*
X176620000Y-87681284D01*
X177620000Y-87681284D01*
X177715940Y-87655578D01*
X177939995Y-87562772D01*
X178149999Y-87441525D01*
X178150015Y-87441514D01*
X178342407Y-87293887D01*
X178513887Y-87122407D01*
X178661514Y-86930015D01*
X178661525Y-86929999D01*
X178782773Y-86719993D01*
X178875577Y-86495943D01*
X178875579Y-86495936D01*
X178901286Y-86400000D01*
X177620000Y-86400000D01*
X177620000Y-87681284D01*
X176620000Y-87681284D01*
X176620000Y-85965826D01*
X176654075Y-86092993D01*
X176719901Y-86207007D01*
X176812993Y-86300099D01*
X176927007Y-86365925D01*
X177054174Y-86400000D01*
X177185826Y-86400000D01*
X177312993Y-86365925D01*
X177427007Y-86300099D01*
X177520099Y-86207007D01*
X177585925Y-86092993D01*
X177620000Y-85965826D01*
X177620000Y-85834174D01*
X177585925Y-85707007D01*
X177520099Y-85592993D01*
X177427007Y-85499901D01*
X177312993Y-85434075D01*
X177185826Y-85400000D01*
X177620000Y-85400000D01*
X178901285Y-85400000D01*
X178875579Y-85304063D01*
X178875577Y-85304056D01*
X178782773Y-85080006D01*
X178661525Y-84870000D01*
X178661514Y-84869984D01*
X178513887Y-84677592D01*
X178342407Y-84506112D01*
X178150015Y-84358485D01*
X178149999Y-84358474D01*
X177939992Y-84237226D01*
X177939993Y-84237226D01*
X177715943Y-84144422D01*
X177715936Y-84144420D01*
X177620000Y-84118714D01*
X177620000Y-85400000D01*
X177185826Y-85400000D01*
X177054174Y-85400000D01*
X176927007Y-85434075D01*
X176812993Y-85499901D01*
X176719901Y-85592993D01*
X176654075Y-85707007D01*
X176620000Y-85834174D01*
X176620000Y-84118714D01*
X176524063Y-84144420D01*
X176524056Y-84144422D01*
X176294856Y-84239360D01*
X176157237Y-84274485D01*
X176015298Y-84269415D01*
X175880536Y-84224562D01*
X175763870Y-84143559D01*
X175724660Y-84102633D01*
X167377511Y-75755484D01*
X167377510Y-75755483D01*
X167186434Y-75616657D01*
X167186433Y-75616656D01*
X167186431Y-75616655D01*
X167186424Y-75616651D01*
X166975997Y-75509434D01*
X166975979Y-75509427D01*
X166751373Y-75436448D01*
X166751367Y-75436446D01*
X166518092Y-75399500D01*
X145618092Y-75399500D01*
X145381908Y-75399500D01*
X145148632Y-75436446D01*
X145148626Y-75436448D01*
X144924020Y-75509427D01*
X144924003Y-75509434D01*
X144713571Y-75616654D01*
X144713559Y-75616662D01*
X144522491Y-75755481D01*
X144522484Y-75755487D01*
X144355487Y-75922484D01*
X144355481Y-75922491D01*
X144216662Y-76113559D01*
X144216654Y-76113571D01*
X144109434Y-76324003D01*
X144109427Y-76324020D01*
X144036448Y-76548626D01*
X144036446Y-76548632D01*
X143999500Y-76781907D01*
X143999500Y-110671780D01*
X143979287Y-110812365D01*
X143920286Y-110941560D01*
X143853346Y-111024626D01*
X132717346Y-122160626D01*
X132603645Y-122245742D01*
X132470570Y-122295376D01*
X132328902Y-122305509D01*
X132190117Y-122275318D01*
X132065460Y-122207250D01*
X131965030Y-122106820D01*
X131896962Y-121982163D01*
X131866771Y-121843378D01*
X131865500Y-121807780D01*
X131865500Y-121704283D01*
X131835293Y-121474836D01*
X131835292Y-121474830D01*
X131835292Y-121474829D01*
X131775392Y-121251281D01*
X131762523Y-121220212D01*
X131686825Y-121037460D01*
X131571116Y-120837046D01*
X131564556Y-120827229D01*
X131503258Y-120699108D01*
X131480539Y-120558906D01*
X131498240Y-120417983D01*
X131554926Y-120287756D01*
X131564556Y-120272771D01*
X131571116Y-120262953D01*
X131686825Y-120062539D01*
X131775390Y-119848723D01*
X131775392Y-119848719D01*
X131835292Y-119625171D01*
X131865500Y-119395717D01*
X131865500Y-119164283D01*
X131835292Y-118934829D01*
X131775392Y-118711281D01*
X131762523Y-118680212D01*
X131686825Y-118497460D01*
X131571116Y-118297046D01*
X131564556Y-118287229D01*
X131503258Y-118159108D01*
X131480539Y-118018906D01*
X131498240Y-117877983D01*
X131554926Y-117747756D01*
X131564556Y-117732771D01*
X131571116Y-117722953D01*
X131686825Y-117522539D01*
X131775390Y-117308723D01*
X131775392Y-117308719D01*
X131835292Y-117085171D01*
X131865500Y-116855717D01*
X131865500Y-116624283D01*
X131835292Y-116394829D01*
X131775392Y-116171281D01*
X131749430Y-116108603D01*
X131686825Y-115957460D01*
X131571116Y-115757048D01*
X131571111Y-115757040D01*
X131571109Y-115757036D01*
X131571101Y-115757025D01*
X131565385Y-115748470D01*
X131504086Y-115620349D01*
X131481367Y-115480147D01*
X131499066Y-115339224D01*
X131548144Y-115221732D01*
X131686378Y-114982311D01*
X131774918Y-114768556D01*
X131834798Y-114545079D01*
X131834801Y-114545061D01*
X131865000Y-114315683D01*
X131865000Y-114084316D01*
X131834801Y-113854938D01*
X131834798Y-113854920D01*
X131774919Y-113631446D01*
X131686375Y-113417684D01*
X131548143Y-113178262D01*
X131495355Y-113046406D01*
X131481853Y-112905019D01*
X131508732Y-112765555D01*
X131565395Y-112651514D01*
X131571095Y-112642981D01*
X131571109Y-112642964D01*
X131666635Y-112477508D01*
X131686825Y-112442539D01*
X131775390Y-112228723D01*
X131775392Y-112228719D01*
X131835292Y-112005171D01*
X131865500Y-111775717D01*
X131865500Y-111544283D01*
X131835292Y-111314829D01*
X131775392Y-111091281D01*
X131747783Y-111024626D01*
X131686825Y-110877460D01*
X131571116Y-110677046D01*
X131564556Y-110667229D01*
X131503258Y-110539108D01*
X131480539Y-110398906D01*
X131498240Y-110257983D01*
X131554926Y-110127756D01*
X131564556Y-110112771D01*
X131571116Y-110102953D01*
X131686825Y-109902539D01*
X131775390Y-109688723D01*
X131775392Y-109688719D01*
X131835292Y-109465171D01*
X131865500Y-109235717D01*
X131865500Y-109004283D01*
X131835292Y-108774829D01*
X131775392Y-108551281D01*
X131775390Y-108551276D01*
X131686825Y-108337460D01*
X131571116Y-108137046D01*
X131564556Y-108127229D01*
X131503258Y-107999108D01*
X131480539Y-107858906D01*
X131498240Y-107717983D01*
X131554926Y-107587756D01*
X131564556Y-107572771D01*
X131571116Y-107562953D01*
X131686825Y-107362539D01*
X131775390Y-107148723D01*
X131775392Y-107148719D01*
X131835292Y-106925171D01*
X131865500Y-106695717D01*
X131865500Y-106464283D01*
X131855257Y-106386476D01*
X131835293Y-106234836D01*
X131835292Y-106234830D01*
X131831991Y-106222510D01*
X131775392Y-106011281D01*
X131725580Y-105891024D01*
X131686825Y-105797460D01*
X131571116Y-105597046D01*
X131564556Y-105587229D01*
X131503258Y-105459108D01*
X131480539Y-105318906D01*
X131498240Y-105177983D01*
X131554926Y-105047756D01*
X131564556Y-105032771D01*
X131571116Y-105022953D01*
X131686825Y-104822539D01*
X131775390Y-104608723D01*
X131775392Y-104608719D01*
X131835292Y-104385171D01*
X131865500Y-104155717D01*
X131865500Y-103924283D01*
X131846120Y-103777078D01*
X131835293Y-103694836D01*
X131835292Y-103694830D01*
X131835292Y-103694829D01*
X131775392Y-103471281D01*
X131775390Y-103471276D01*
X131686825Y-103257460D01*
X131571116Y-103057046D01*
X131564556Y-103047229D01*
X131503258Y-102919108D01*
X131480539Y-102778906D01*
X131498240Y-102637983D01*
X131554926Y-102507756D01*
X131564556Y-102492771D01*
X131571116Y-102482953D01*
X131686825Y-102282539D01*
X131775390Y-102068723D01*
X131775392Y-102068719D01*
X131835292Y-101845171D01*
X131865500Y-101615717D01*
X131865500Y-101384283D01*
X131835292Y-101154829D01*
X131775392Y-100931281D01*
X131775390Y-100931276D01*
X131686825Y-100717460D01*
X131571116Y-100517046D01*
X131564556Y-100507229D01*
X131503258Y-100379108D01*
X131480539Y-100238906D01*
X131498240Y-100097983D01*
X131554926Y-99967756D01*
X131564556Y-99952771D01*
X131571116Y-99942953D01*
X131686825Y-99742539D01*
X131775390Y-99528723D01*
X131775392Y-99528719D01*
X131835292Y-99305171D01*
X131865500Y-99075717D01*
X131865500Y-98844283D01*
X131835292Y-98614829D01*
X131775392Y-98391281D01*
X131775390Y-98391276D01*
X131686825Y-98177460D01*
X131571116Y-97977046D01*
X131564556Y-97967229D01*
X131503258Y-97839108D01*
X131480539Y-97698906D01*
X131498240Y-97557983D01*
X131554926Y-97427756D01*
X131564556Y-97412771D01*
X131571116Y-97402953D01*
X131686825Y-97202539D01*
X131775390Y-96988723D01*
X131775392Y-96988719D01*
X131835292Y-96765171D01*
X131865500Y-96535717D01*
X131865500Y-96304283D01*
X131835292Y-96074829D01*
X131775392Y-95851281D01*
X131712847Y-95700283D01*
X131686825Y-95637460D01*
X131571116Y-95437046D01*
X131564556Y-95427229D01*
X131503258Y-95299108D01*
X131480539Y-95158906D01*
X131498240Y-95017983D01*
X131554926Y-94887756D01*
X131564556Y-94872771D01*
X131571116Y-94862953D01*
X131686825Y-94662539D01*
X131775390Y-94448723D01*
X131775392Y-94448719D01*
X131835292Y-94225171D01*
X131865500Y-93995717D01*
X131865500Y-93764283D01*
X131835293Y-93534836D01*
X131835292Y-93534830D01*
X131798955Y-93399219D01*
X131775392Y-93311281D01*
X131731176Y-93204534D01*
X131686825Y-93097460D01*
X131571116Y-92897046D01*
X131564556Y-92887229D01*
X131503258Y-92759108D01*
X131480539Y-92618906D01*
X131498240Y-92477983D01*
X131554926Y-92347756D01*
X131564556Y-92332771D01*
X131571116Y-92322953D01*
X131686825Y-92122539D01*
X131775390Y-91908723D01*
X131775392Y-91908719D01*
X131835292Y-91685171D01*
X131865500Y-91455717D01*
X131865500Y-91224283D01*
X131835292Y-90994829D01*
X131775392Y-90771281D01*
X131775390Y-90771276D01*
X131686825Y-90557460D01*
X131571116Y-90357046D01*
X131564556Y-90347229D01*
X131503258Y-90219108D01*
X131480539Y-90078906D01*
X131498240Y-89937983D01*
X131554926Y-89807756D01*
X131564556Y-89792771D01*
X131571116Y-89782953D01*
X131686825Y-89582539D01*
X131775390Y-89368723D01*
X131775392Y-89368719D01*
X131835292Y-89145171D01*
X131865500Y-88915717D01*
X131865500Y-88684283D01*
X131835292Y-88454829D01*
X131775392Y-88231281D01*
X131775390Y-88231276D01*
X131686825Y-88017460D01*
X131571116Y-87817046D01*
X131564556Y-87807229D01*
X131503258Y-87679108D01*
X131480539Y-87538906D01*
X131498240Y-87397983D01*
X131554926Y-87267756D01*
X131564556Y-87252771D01*
X131571116Y-87242953D01*
X131686825Y-87042539D01*
X131775390Y-86828723D01*
X131775392Y-86828719D01*
X131835292Y-86605171D01*
X131865500Y-86375717D01*
X131865500Y-86144283D01*
X131835292Y-85914829D01*
X131775392Y-85691281D01*
X131734680Y-85592993D01*
X131686825Y-85477460D01*
X131571116Y-85277046D01*
X131564556Y-85267229D01*
X131503258Y-85139108D01*
X131480539Y-84998906D01*
X131498240Y-84857983D01*
X131554926Y-84727756D01*
X131564556Y-84712771D01*
X131571116Y-84702953D01*
X131686825Y-84502539D01*
X131746494Y-84358485D01*
X131775392Y-84288719D01*
X131835292Y-84065171D01*
X131865500Y-83835717D01*
X131865500Y-83604283D01*
X131835292Y-83374829D01*
X131775392Y-83151281D01*
X131775390Y-83151276D01*
X131682508Y-82927037D01*
X131647383Y-82789418D01*
X131652453Y-82647479D01*
X131697306Y-82512717D01*
X131701231Y-82505042D01*
X131704694Y-82498411D01*
X131704698Y-82498407D01*
X131798909Y-82318049D01*
X131854886Y-82122418D01*
X131865500Y-82003037D01*
X131865499Y-80356964D01*
X131854886Y-80237582D01*
X131798909Y-80041951D01*
X131704698Y-79861593D01*
X131704695Y-79861589D01*
X131576110Y-79703891D01*
X131576108Y-79703889D01*
X131418410Y-79575304D01*
X131418407Y-79575302D01*
X131238057Y-79481095D01*
X131238054Y-79481093D01*
X131238049Y-79481091D01*
X131042418Y-79425114D01*
X130923037Y-79414500D01*
X130923030Y-79414500D01*
X130380377Y-79414500D01*
X130327544Y-79406903D01*
X130274307Y-79403096D01*
X130257524Y-79396836D01*
X130239792Y-79394287D01*
X130191236Y-79372112D01*
X130141232Y-79353462D01*
X130126893Y-79342728D01*
X130110597Y-79335286D01*
X130027531Y-79268346D01*
X129446654Y-78687469D01*
X129361538Y-78573768D01*
X129311904Y-78440693D01*
X129300500Y-78334623D01*
X129300500Y-71199500D01*
X129320713Y-71058915D01*
X129379714Y-70929720D01*
X129472724Y-70822381D01*
X129592208Y-70745594D01*
X129728485Y-70705579D01*
X129799500Y-70700500D01*
X168254623Y-70700500D01*
X168395208Y-70720713D01*
G37*
%TD.AperFunction*%
%TA.AperFunction,Conductor*%
G36*
X188891085Y-62770713D02*
G01*
X189020280Y-62829714D01*
X189127619Y-62922724D01*
X189204406Y-63042208D01*
X189244421Y-63178485D01*
X189249500Y-63249500D01*
X189249500Y-135750500D01*
X189229287Y-135891085D01*
X189170286Y-136020280D01*
X189077276Y-136127619D01*
X188957792Y-136204406D01*
X188821515Y-136244421D01*
X188750500Y-136249500D01*
X121249500Y-136249500D01*
X121108915Y-136229287D01*
X120979720Y-136170286D01*
X120872381Y-136077276D01*
X120795594Y-135957792D01*
X120755579Y-135821515D01*
X120750500Y-135750500D01*
X120750500Y-132878450D01*
X122645500Y-132878450D01*
X122645500Y-133121549D01*
X122677229Y-133362564D01*
X122677231Y-133362574D01*
X122740149Y-133597385D01*
X122740152Y-133597393D01*
X122833181Y-133821986D01*
X122954726Y-134032508D01*
X122954736Y-134032523D01*
X123102721Y-134225380D01*
X123274619Y-134397278D01*
X123467476Y-134545263D01*
X123467484Y-134545269D01*
X123467491Y-134545273D01*
X123678013Y-134666818D01*
X123749969Y-134696623D01*
X123902612Y-134759850D01*
X124137429Y-134822769D01*
X124137431Y-134822769D01*
X124137435Y-134822770D01*
X124285601Y-134842276D01*
X124378450Y-134854500D01*
X124378451Y-134854500D01*
X124621549Y-134854500D01*
X124621550Y-134854500D01*
X124772583Y-134834616D01*
X124862564Y-134822770D01*
X124862565Y-134822769D01*
X124862571Y-134822769D01*
X125097388Y-134759850D01*
X125321984Y-134666819D01*
X125532516Y-134545269D01*
X125725380Y-134397278D01*
X125897278Y-134225380D01*
X126045269Y-134032516D01*
X126166819Y-133821984D01*
X126259850Y-133597388D01*
X126322769Y-133362571D01*
X126354500Y-133121550D01*
X126354500Y-132878450D01*
X183645500Y-132878450D01*
X183645500Y-133121549D01*
X183677229Y-133362564D01*
X183677231Y-133362574D01*
X183740149Y-133597385D01*
X183740152Y-133597393D01*
X183833181Y-133821986D01*
X183954726Y-134032508D01*
X183954736Y-134032523D01*
X184102721Y-134225380D01*
X184274619Y-134397278D01*
X184467476Y-134545263D01*
X184467484Y-134545269D01*
X184467491Y-134545273D01*
X184678013Y-134666818D01*
X184749969Y-134696623D01*
X184902612Y-134759850D01*
X185137429Y-134822769D01*
X185137431Y-134822769D01*
X185137435Y-134822770D01*
X185285601Y-134842276D01*
X185378450Y-134854500D01*
X185378451Y-134854500D01*
X185621549Y-134854500D01*
X185621550Y-134854500D01*
X185772583Y-134834616D01*
X185862564Y-134822770D01*
X185862565Y-134822769D01*
X185862571Y-134822769D01*
X186097388Y-134759850D01*
X186321984Y-134666819D01*
X186532516Y-134545269D01*
X186725380Y-134397278D01*
X186897278Y-134225380D01*
X187045269Y-134032516D01*
X187166819Y-133821984D01*
X187259850Y-133597388D01*
X187322769Y-133362571D01*
X187354500Y-133121550D01*
X187354500Y-132878450D01*
X187322769Y-132637429D01*
X187259850Y-132402612D01*
X187166819Y-132178016D01*
X187166818Y-132178013D01*
X187045273Y-131967491D01*
X187045269Y-131967484D01*
X187045263Y-131967476D01*
X186897278Y-131774619D01*
X186725380Y-131602721D01*
X186532523Y-131454736D01*
X186532519Y-131454733D01*
X186532516Y-131454731D01*
X186532512Y-131454728D01*
X186532508Y-131454726D01*
X186321986Y-131333181D01*
X186097393Y-131240152D01*
X186097385Y-131240149D01*
X185862574Y-131177231D01*
X185862564Y-131177229D01*
X185647770Y-131148951D01*
X185621550Y-131145500D01*
X185378450Y-131145500D01*
X185354802Y-131148613D01*
X185137435Y-131177229D01*
X185137425Y-131177231D01*
X184902614Y-131240149D01*
X184902606Y-131240152D01*
X184678013Y-131333181D01*
X184467491Y-131454726D01*
X184467476Y-131454736D01*
X184274619Y-131602721D01*
X184102721Y-131774619D01*
X183954736Y-131967476D01*
X183954726Y-131967491D01*
X183833181Y-132178013D01*
X183740152Y-132402606D01*
X183740149Y-132402614D01*
X183677231Y-132637425D01*
X183677229Y-132637435D01*
X183645500Y-132878450D01*
X126354500Y-132878450D01*
X126322769Y-132637429D01*
X126259850Y-132402612D01*
X126166819Y-132178016D01*
X126166818Y-132178013D01*
X126045273Y-131967491D01*
X126045269Y-131967484D01*
X126045263Y-131967476D01*
X125897278Y-131774619D01*
X125725380Y-131602721D01*
X125532523Y-131454736D01*
X125532519Y-131454733D01*
X125532516Y-131454731D01*
X125532512Y-131454728D01*
X125532508Y-131454726D01*
X125321986Y-131333181D01*
X125097393Y-131240152D01*
X125097385Y-131240149D01*
X124862574Y-131177231D01*
X124862564Y-131177229D01*
X124647770Y-131148951D01*
X124621550Y-131145500D01*
X124378450Y-131145500D01*
X124354802Y-131148613D01*
X124137435Y-131177229D01*
X124137425Y-131177231D01*
X123902614Y-131240149D01*
X123902606Y-131240152D01*
X123678013Y-131333181D01*
X123467491Y-131454726D01*
X123467476Y-131454736D01*
X123274619Y-131602721D01*
X123102721Y-131774619D01*
X122954736Y-131967476D01*
X122954726Y-131967491D01*
X122833181Y-132178013D01*
X122740152Y-132402606D01*
X122740149Y-132402614D01*
X122677231Y-132637425D01*
X122677229Y-132637435D01*
X122645500Y-132878450D01*
X120750500Y-132878450D01*
X120750500Y-69297648D01*
X126699500Y-69297648D01*
X126699500Y-79182352D01*
X126731521Y-79384530D01*
X126731522Y-79384531D01*
X126736439Y-79399666D01*
X126736442Y-79399674D01*
X126741260Y-79414501D01*
X126794780Y-79579219D01*
X126840781Y-79669500D01*
X126887713Y-79761611D01*
X127008034Y-79927219D01*
X127008036Y-79927221D01*
X127008036Y-79927222D01*
X128188346Y-81107531D01*
X128273462Y-81221232D01*
X128323096Y-81354307D01*
X128334500Y-81460376D01*
X128334500Y-82003030D01*
X128345114Y-82122417D01*
X128401090Y-82318046D01*
X128401093Y-82318054D01*
X128498769Y-82505044D01*
X128545943Y-82639011D01*
X128553463Y-82780842D01*
X128520720Y-82919047D01*
X128517492Y-82927035D01*
X128424609Y-83151277D01*
X128424608Y-83151279D01*
X128364707Y-83374830D01*
X128364706Y-83374836D01*
X128334500Y-83604283D01*
X128334500Y-83835716D01*
X128364706Y-84065163D01*
X128364707Y-84065169D01*
X128424608Y-84288720D01*
X128424609Y-84288723D01*
X128513174Y-84502539D01*
X128628887Y-84702959D01*
X128635451Y-84712783D01*
X128696745Y-84840906D01*
X128719460Y-84981109D01*
X128701755Y-85122031D01*
X128645065Y-85252257D01*
X128635451Y-85267217D01*
X128628887Y-85277040D01*
X128513174Y-85477460D01*
X128424609Y-85691276D01*
X128424608Y-85691279D01*
X128364707Y-85914830D01*
X128364706Y-85914836D01*
X128334500Y-86144283D01*
X128334500Y-86375716D01*
X128364706Y-86605163D01*
X128364707Y-86605169D01*
X128424608Y-86828720D01*
X128424609Y-86828723D01*
X128513174Y-87042539D01*
X128628887Y-87242959D01*
X128635451Y-87252783D01*
X128696745Y-87380906D01*
X128719460Y-87521109D01*
X128701755Y-87662031D01*
X128645065Y-87792257D01*
X128635451Y-87807217D01*
X128628887Y-87817040D01*
X128513174Y-88017460D01*
X128424609Y-88231276D01*
X128424608Y-88231279D01*
X128364707Y-88454830D01*
X128364706Y-88454836D01*
X128334500Y-88684283D01*
X128334500Y-88915716D01*
X128364706Y-89145163D01*
X128364707Y-89145169D01*
X128424608Y-89368720D01*
X128424609Y-89368723D01*
X128513174Y-89582539D01*
X128628887Y-89782959D01*
X128635451Y-89792783D01*
X128696745Y-89920906D01*
X128719460Y-90061109D01*
X128701755Y-90202031D01*
X128645065Y-90332257D01*
X128635451Y-90347217D01*
X128628887Y-90357040D01*
X128513174Y-90557460D01*
X128424609Y-90771276D01*
X128424608Y-90771279D01*
X128364707Y-90994830D01*
X128364706Y-90994836D01*
X128334500Y-91224283D01*
X128334500Y-91455716D01*
X128364706Y-91685163D01*
X128364707Y-91685169D01*
X128424608Y-91908720D01*
X128424609Y-91908723D01*
X128513174Y-92122539D01*
X128628887Y-92322959D01*
X128635451Y-92332783D01*
X128696745Y-92460906D01*
X128719460Y-92601109D01*
X128701755Y-92742031D01*
X128645065Y-92872257D01*
X128635451Y-92887217D01*
X128628887Y-92897040D01*
X128513174Y-93097460D01*
X128424609Y-93311276D01*
X128424608Y-93311279D01*
X128364707Y-93534830D01*
X128364706Y-93534836D01*
X128334500Y-93764283D01*
X128334500Y-93995716D01*
X128364706Y-94225163D01*
X128364707Y-94225169D01*
X128424608Y-94448720D01*
X128424609Y-94448723D01*
X128513174Y-94662539D01*
X128628887Y-94862959D01*
X128635451Y-94872783D01*
X128696745Y-95000906D01*
X128719460Y-95141109D01*
X128701755Y-95282031D01*
X128645065Y-95412257D01*
X128635451Y-95427217D01*
X128628887Y-95437040D01*
X128513174Y-95637460D01*
X128424609Y-95851276D01*
X128424608Y-95851279D01*
X128364707Y-96074830D01*
X128364706Y-96074836D01*
X128334500Y-96304283D01*
X128334500Y-96535716D01*
X128364706Y-96765163D01*
X128364707Y-96765169D01*
X128424608Y-96988720D01*
X128424609Y-96988723D01*
X128513174Y-97202539D01*
X128628887Y-97402959D01*
X128635451Y-97412783D01*
X128696745Y-97540906D01*
X128719460Y-97681109D01*
X128701755Y-97822031D01*
X128645065Y-97952257D01*
X128635451Y-97967217D01*
X128628887Y-97977040D01*
X128513174Y-98177460D01*
X128424609Y-98391276D01*
X128424608Y-98391279D01*
X128364707Y-98614830D01*
X128364706Y-98614836D01*
X128334500Y-98844283D01*
X128334500Y-99075716D01*
X128364706Y-99305163D01*
X128364707Y-99305169D01*
X128424608Y-99528720D01*
X128424609Y-99528723D01*
X128513174Y-99742539D01*
X128628887Y-99942959D01*
X128635451Y-99952783D01*
X128696745Y-100080906D01*
X128719460Y-100221109D01*
X128701755Y-100362031D01*
X128645065Y-100492257D01*
X128635451Y-100507217D01*
X128628887Y-100517040D01*
X128513174Y-100717460D01*
X128424609Y-100931276D01*
X128424608Y-100931279D01*
X128364707Y-101154830D01*
X128364706Y-101154836D01*
X128334500Y-101384283D01*
X128334500Y-101615716D01*
X128364706Y-101845163D01*
X128364707Y-101845169D01*
X128424608Y-102068720D01*
X128424609Y-102068723D01*
X128513174Y-102282539D01*
X128628887Y-102482959D01*
X128635451Y-102492783D01*
X128696745Y-102620906D01*
X128719460Y-102761109D01*
X128701755Y-102902031D01*
X128645065Y-103032257D01*
X128635451Y-103047217D01*
X128628887Y-103057040D01*
X128513174Y-103257460D01*
X128424609Y-103471276D01*
X128424608Y-103471279D01*
X128364707Y-103694830D01*
X128364706Y-103694836D01*
X128334500Y-103924283D01*
X128334500Y-104155716D01*
X128364706Y-104385163D01*
X128364707Y-104385169D01*
X128424608Y-104608720D01*
X128424609Y-104608723D01*
X128513174Y-104822539D01*
X128628887Y-105022959D01*
X128635451Y-105032783D01*
X128696745Y-105160906D01*
X128719460Y-105301109D01*
X128701755Y-105442031D01*
X128645065Y-105572257D01*
X128635451Y-105587217D01*
X128628887Y-105597040D01*
X128513174Y-105797460D01*
X128424609Y-106011276D01*
X128424608Y-106011279D01*
X128364707Y-106234830D01*
X128364706Y-106234836D01*
X128334500Y-106464283D01*
X128334500Y-106695716D01*
X128364706Y-106925163D01*
X128364707Y-106925169D01*
X128424608Y-107148720D01*
X128424609Y-107148723D01*
X128513174Y-107362539D01*
X128628887Y-107562959D01*
X128635451Y-107572783D01*
X128696745Y-107700906D01*
X128719460Y-107841109D01*
X128701755Y-107982031D01*
X128645065Y-108112257D01*
X128635451Y-108127217D01*
X128628887Y-108137040D01*
X128513174Y-108337460D01*
X128424609Y-108551276D01*
X128424608Y-108551279D01*
X128364707Y-108774830D01*
X128364706Y-108774836D01*
X128334500Y-109004283D01*
X128334500Y-109235716D01*
X128364706Y-109465163D01*
X128364707Y-109465169D01*
X128424608Y-109688720D01*
X128424609Y-109688723D01*
X128513174Y-109902539D01*
X128628887Y-110102959D01*
X128635451Y-110112783D01*
X128696745Y-110240906D01*
X128719460Y-110381109D01*
X128701755Y-110522031D01*
X128645065Y-110652257D01*
X128635451Y-110667217D01*
X128628887Y-110677040D01*
X128513174Y-110877460D01*
X128424609Y-111091276D01*
X128424608Y-111091279D01*
X128364707Y-111314830D01*
X128364706Y-111314836D01*
X128334500Y-111544283D01*
X128334500Y-111775716D01*
X128364706Y-112005163D01*
X128364707Y-112005169D01*
X128424608Y-112228720D01*
X128424609Y-112228723D01*
X128513174Y-112442539D01*
X128628882Y-112642950D01*
X128634613Y-112651527D01*
X128695910Y-112779649D01*
X128718629Y-112919851D01*
X128700927Y-113060773D01*
X128651857Y-113178251D01*
X128513623Y-113417684D01*
X128425081Y-113631443D01*
X128365201Y-113854920D01*
X128365198Y-113854938D01*
X128335000Y-114084316D01*
X128335000Y-114315683D01*
X128365198Y-114545061D01*
X128365201Y-114545079D01*
X128425080Y-114768553D01*
X128513623Y-114982313D01*
X128651857Y-115221741D01*
X128704644Y-115353597D01*
X128718145Y-115494984D01*
X128691265Y-115634448D01*
X128634620Y-115748460D01*
X128628891Y-115757033D01*
X128513174Y-115957460D01*
X128424609Y-116171276D01*
X128424608Y-116171279D01*
X128364707Y-116394830D01*
X128364706Y-116394836D01*
X128334500Y-116624283D01*
X128334500Y-116855716D01*
X128364706Y-117085163D01*
X128364707Y-117085169D01*
X128424608Y-117308720D01*
X128424609Y-117308723D01*
X128513174Y-117522539D01*
X128628887Y-117722959D01*
X128635451Y-117732783D01*
X128696745Y-117860906D01*
X128719460Y-118001109D01*
X128701755Y-118142031D01*
X128645065Y-118272257D01*
X128635451Y-118287217D01*
X128628887Y-118297040D01*
X128513174Y-118497460D01*
X128424609Y-118711276D01*
X128424608Y-118711279D01*
X128364707Y-118934830D01*
X128364706Y-118934836D01*
X128334500Y-119164283D01*
X128334500Y-119395716D01*
X128364706Y-119625163D01*
X128364707Y-119625169D01*
X128424608Y-119848720D01*
X128424609Y-119848723D01*
X128513174Y-120062539D01*
X128628887Y-120262959D01*
X128635451Y-120272783D01*
X128696745Y-120400906D01*
X128719460Y-120541109D01*
X128701755Y-120682031D01*
X128645065Y-120812257D01*
X128635451Y-120827217D01*
X128628887Y-120837040D01*
X128513174Y-121037460D01*
X128424609Y-121251276D01*
X128424608Y-121251279D01*
X128364707Y-121474830D01*
X128364706Y-121474836D01*
X128334500Y-121704283D01*
X128334500Y-121935716D01*
X128364706Y-122165163D01*
X128364707Y-122165169D01*
X128424608Y-122388720D01*
X128424609Y-122388723D01*
X128513174Y-122602539D01*
X128628887Y-122802959D01*
X128635451Y-122812783D01*
X128696745Y-122940906D01*
X128719460Y-123081109D01*
X128701755Y-123222031D01*
X128645065Y-123352257D01*
X128635451Y-123367217D01*
X128628887Y-123377040D01*
X128513174Y-123577460D01*
X128424609Y-123791276D01*
X128424608Y-123791279D01*
X128364707Y-124014830D01*
X128364706Y-124014836D01*
X128334500Y-124244283D01*
X128334500Y-124475716D01*
X128364706Y-124705163D01*
X128364707Y-124705169D01*
X128424608Y-124928720D01*
X128424609Y-124928723D01*
X128513174Y-125142539D01*
X128628887Y-125342959D01*
X128635451Y-125352783D01*
X128696745Y-125480906D01*
X128719460Y-125621109D01*
X128701755Y-125762031D01*
X128645065Y-125892257D01*
X128635451Y-125907217D01*
X128628887Y-125917040D01*
X128513174Y-126117460D01*
X128424609Y-126331276D01*
X128424608Y-126331279D01*
X128364707Y-126554830D01*
X128364706Y-126554836D01*
X128334500Y-126784283D01*
X128334500Y-127015716D01*
X128364706Y-127245163D01*
X128364707Y-127245169D01*
X128424608Y-127468720D01*
X128424609Y-127468723D01*
X128513174Y-127682539D01*
X128628884Y-127882953D01*
X128628888Y-127882960D01*
X128628890Y-127882963D01*
X128628891Y-127882964D01*
X128769779Y-128066573D01*
X128933427Y-128230221D01*
X129117036Y-128371109D01*
X129117039Y-128371111D01*
X129117046Y-128371115D01*
X129317461Y-128486825D01*
X129317460Y-128486825D01*
X129531276Y-128575390D01*
X129531281Y-128575392D01*
X129754829Y-128635292D01*
X129754833Y-128635292D01*
X129754836Y-128635293D01*
X129840501Y-128646570D01*
X129984283Y-128665500D01*
X129984284Y-128665500D01*
X130215716Y-128665500D01*
X130215717Y-128665500D01*
X130445171Y-128635292D01*
X130668719Y-128575392D01*
X130793972Y-128523510D01*
X130882539Y-128486825D01*
X131018021Y-128408603D01*
X131082964Y-128371109D01*
X131266573Y-128230221D01*
X131430221Y-128066573D01*
X131571109Y-127882964D01*
X131608603Y-127818021D01*
X131686825Y-127682539D01*
X131775390Y-127468723D01*
X131775392Y-127468719D01*
X131785472Y-127431096D01*
X131841380Y-127300538D01*
X131914619Y-127207406D01*
X146644517Y-112477510D01*
X146783343Y-112286433D01*
X146890568Y-112075992D01*
X146963553Y-111851368D01*
X147000500Y-111618092D01*
X147000500Y-111381908D01*
X147000500Y-78899500D01*
X147020713Y-78758915D01*
X147079714Y-78629720D01*
X147172724Y-78522381D01*
X147292208Y-78445594D01*
X147428485Y-78405579D01*
X147499500Y-78400500D01*
X165571781Y-78400500D01*
X165712366Y-78420713D01*
X165841561Y-78479714D01*
X165924627Y-78546654D01*
X170575627Y-83197654D01*
X170660743Y-83311355D01*
X170710377Y-83444430D01*
X170720510Y-83586098D01*
X170690319Y-83724883D01*
X170622251Y-83849540D01*
X170521821Y-83949970D01*
X170397164Y-84018038D01*
X170258379Y-84048229D01*
X170222781Y-84049500D01*
X168591969Y-84049500D01*
X168472582Y-84060114D01*
X168276953Y-84116090D01*
X168276942Y-84116095D01*
X168096592Y-84210302D01*
X168096589Y-84210304D01*
X167938892Y-84338888D01*
X167876148Y-84415839D01*
X167771641Y-84512021D01*
X167644271Y-84574864D01*
X167504354Y-84599276D01*
X167489415Y-84599500D01*
X157733947Y-84599500D01*
X157593362Y-84579287D01*
X157464167Y-84520286D01*
X157356828Y-84427276D01*
X157280041Y-84307792D01*
X157240026Y-84171515D01*
X157239216Y-84035369D01*
X157265500Y-83835716D01*
X157265500Y-83604283D01*
X157235293Y-83374836D01*
X157235292Y-83374830D01*
X157213240Y-83292531D01*
X157175392Y-83151281D01*
X157175390Y-83151276D01*
X157086825Y-82937460D01*
X156971116Y-82737046D01*
X156964556Y-82727229D01*
X156903258Y-82599108D01*
X156880539Y-82458906D01*
X156898240Y-82317983D01*
X156954926Y-82187756D01*
X156964556Y-82172771D01*
X156971116Y-82162953D01*
X157086825Y-81962539D01*
X157175390Y-81748723D01*
X157175392Y-81748719D01*
X157235292Y-81525171D01*
X157265500Y-81295717D01*
X157265500Y-81064283D01*
X157235292Y-80834829D01*
X157175392Y-80611281D01*
X157175390Y-80611276D01*
X157086825Y-80397460D01*
X156971115Y-80197046D01*
X156971111Y-80197039D01*
X156971109Y-80197036D01*
X156830221Y-80013427D01*
X156666573Y-79849779D01*
X156482964Y-79708891D01*
X156482963Y-79708890D01*
X156482960Y-79708888D01*
X156482953Y-79708884D01*
X156282538Y-79593174D01*
X156282539Y-79593174D01*
X156068723Y-79504609D01*
X156068720Y-79504608D01*
X155845169Y-79444707D01*
X155845163Y-79444706D01*
X155643726Y-79418187D01*
X155615717Y-79414500D01*
X155384283Y-79414500D01*
X155359321Y-79417786D01*
X155154836Y-79444706D01*
X155154830Y-79444707D01*
X154931279Y-79504608D01*
X154931276Y-79504609D01*
X154717460Y-79593174D01*
X154517046Y-79708884D01*
X154517039Y-79708888D01*
X154333428Y-79849778D01*
X154333422Y-79849783D01*
X154169783Y-80013422D01*
X154169778Y-80013428D01*
X154028888Y-80197039D01*
X154028884Y-80197046D01*
X153913174Y-80397460D01*
X153824609Y-80611276D01*
X153824608Y-80611279D01*
X153764707Y-80834830D01*
X153764706Y-80834836D01*
X153734500Y-81064283D01*
X153734500Y-81295716D01*
X153764706Y-81525163D01*
X153764707Y-81525169D01*
X153824608Y-81748720D01*
X153824609Y-81748723D01*
X153913174Y-81962539D01*
X154028887Y-82162959D01*
X154035451Y-82172783D01*
X154096745Y-82300906D01*
X154119460Y-82441109D01*
X154101755Y-82582031D01*
X154045065Y-82712257D01*
X154035451Y-82727217D01*
X154028887Y-82737040D01*
X153913174Y-82937460D01*
X153824609Y-83151276D01*
X153824608Y-83151279D01*
X153764707Y-83374830D01*
X153764706Y-83374836D01*
X153734500Y-83604283D01*
X153734500Y-83835716D01*
X153764706Y-84065163D01*
X153764707Y-84065169D01*
X153824608Y-84288720D01*
X153824609Y-84288723D01*
X153913174Y-84502539D01*
X154028887Y-84702959D01*
X154035451Y-84712783D01*
X154096745Y-84840906D01*
X154119460Y-84981109D01*
X154101755Y-85122031D01*
X154045065Y-85252257D01*
X154035451Y-85267217D01*
X154028887Y-85277040D01*
X153913174Y-85477460D01*
X153824609Y-85691276D01*
X153824608Y-85691279D01*
X153764707Y-85914830D01*
X153764706Y-85914836D01*
X153734500Y-86144283D01*
X153734500Y-86375716D01*
X153764706Y-86605163D01*
X153764707Y-86605169D01*
X153824608Y-86828720D01*
X153824609Y-86828723D01*
X153913174Y-87042539D01*
X154028887Y-87242959D01*
X154035451Y-87252783D01*
X154096745Y-87380906D01*
X154119460Y-87521109D01*
X154101755Y-87662031D01*
X154045065Y-87792257D01*
X154035451Y-87807217D01*
X154028887Y-87817040D01*
X153913174Y-88017460D01*
X153824609Y-88231276D01*
X153824608Y-88231279D01*
X153764707Y-88454830D01*
X153764706Y-88454836D01*
X153734500Y-88684283D01*
X153734500Y-88915716D01*
X153764706Y-89145163D01*
X153764707Y-89145169D01*
X153824608Y-89368720D01*
X153824609Y-89368723D01*
X153913174Y-89582539D01*
X154028887Y-89782959D01*
X154035451Y-89792783D01*
X154096745Y-89920906D01*
X154119460Y-90061109D01*
X154101755Y-90202031D01*
X154045065Y-90332257D01*
X154035451Y-90347217D01*
X154028887Y-90357040D01*
X153913174Y-90557460D01*
X153824609Y-90771276D01*
X153824608Y-90771279D01*
X153764707Y-90994830D01*
X153764706Y-90994836D01*
X153734500Y-91224283D01*
X153734500Y-91455716D01*
X153764706Y-91685163D01*
X153764707Y-91685169D01*
X153824608Y-91908720D01*
X153824609Y-91908723D01*
X153913174Y-92122539D01*
X154028887Y-92322959D01*
X154035451Y-92332783D01*
X154096745Y-92460906D01*
X154119460Y-92601109D01*
X154101755Y-92742031D01*
X154045065Y-92872257D01*
X154035451Y-92887217D01*
X154028887Y-92897040D01*
X153913174Y-93097460D01*
X153824609Y-93311276D01*
X153824608Y-93311279D01*
X153764707Y-93534830D01*
X153764706Y-93534836D01*
X153734500Y-93764283D01*
X153734500Y-93995716D01*
X153764706Y-94225163D01*
X153764707Y-94225169D01*
X153824608Y-94448720D01*
X153824609Y-94448723D01*
X153913174Y-94662539D01*
X154028887Y-94862959D01*
X154035451Y-94872783D01*
X154096745Y-95000906D01*
X154119460Y-95141109D01*
X154101755Y-95282031D01*
X154045065Y-95412257D01*
X154035451Y-95427217D01*
X154028887Y-95437040D01*
X153913174Y-95637460D01*
X153824609Y-95851276D01*
X153824608Y-95851279D01*
X153764707Y-96074830D01*
X153764706Y-96074836D01*
X153734500Y-96304283D01*
X153734500Y-96535716D01*
X153764706Y-96765163D01*
X153764707Y-96765169D01*
X153824608Y-96988720D01*
X153824609Y-96988723D01*
X153913174Y-97202539D01*
X154028887Y-97402959D01*
X154035451Y-97412783D01*
X154096745Y-97540906D01*
X154119460Y-97681109D01*
X154101755Y-97822031D01*
X154045065Y-97952257D01*
X154035451Y-97967217D01*
X154028887Y-97977040D01*
X153913174Y-98177460D01*
X153824609Y-98391276D01*
X153824608Y-98391279D01*
X153764707Y-98614830D01*
X153764706Y-98614836D01*
X153734500Y-98844283D01*
X153734500Y-99075716D01*
X153764706Y-99305163D01*
X153764707Y-99305169D01*
X153824608Y-99528720D01*
X153824609Y-99528723D01*
X153913174Y-99742539D01*
X154028887Y-99942959D01*
X154035451Y-99952783D01*
X154096745Y-100080906D01*
X154119460Y-100221109D01*
X154101755Y-100362031D01*
X154045065Y-100492257D01*
X154035451Y-100507217D01*
X154028887Y-100517040D01*
X153913174Y-100717460D01*
X153824609Y-100931276D01*
X153824608Y-100931279D01*
X153764707Y-101154830D01*
X153764706Y-101154836D01*
X153734500Y-101384283D01*
X153734500Y-101615716D01*
X153764706Y-101845163D01*
X153764707Y-101845169D01*
X153824608Y-102068720D01*
X153824609Y-102068723D01*
X153913174Y-102282539D01*
X154028887Y-102482959D01*
X154035451Y-102492783D01*
X154096745Y-102620906D01*
X154119460Y-102761109D01*
X154101755Y-102902031D01*
X154045065Y-103032257D01*
X154035451Y-103047217D01*
X154028887Y-103057040D01*
X153913174Y-103257460D01*
X153824609Y-103471276D01*
X153824608Y-103471279D01*
X153764707Y-103694830D01*
X153764706Y-103694836D01*
X153734500Y-103924283D01*
X153734500Y-104155716D01*
X153764706Y-104385163D01*
X153764707Y-104385169D01*
X153824608Y-104608720D01*
X153824609Y-104608723D01*
X153913174Y-104822539D01*
X154028887Y-105022959D01*
X154035451Y-105032783D01*
X154096745Y-105160906D01*
X154119460Y-105301109D01*
X154101755Y-105442031D01*
X154045065Y-105572257D01*
X154035451Y-105587217D01*
X154028887Y-105597040D01*
X153913174Y-105797460D01*
X153824609Y-106011276D01*
X153824608Y-106011279D01*
X153764707Y-106234830D01*
X153764706Y-106234836D01*
X153734500Y-106464283D01*
X153734500Y-106695716D01*
X153764706Y-106925163D01*
X153764707Y-106925169D01*
X153824608Y-107148720D01*
X153824609Y-107148723D01*
X153913174Y-107362539D01*
X154028887Y-107562959D01*
X154035451Y-107572783D01*
X154096745Y-107700906D01*
X154119460Y-107841109D01*
X154101755Y-107982031D01*
X154045065Y-108112257D01*
X154035451Y-108127217D01*
X154028887Y-108137040D01*
X153913174Y-108337460D01*
X153824609Y-108551276D01*
X153824608Y-108551279D01*
X153764707Y-108774830D01*
X153764706Y-108774836D01*
X153734500Y-109004283D01*
X153734500Y-109235716D01*
X153764706Y-109465163D01*
X153764707Y-109465169D01*
X153824608Y-109688720D01*
X153824609Y-109688723D01*
X153913174Y-109902539D01*
X154028887Y-110102959D01*
X154035451Y-110112783D01*
X154096745Y-110240906D01*
X154119460Y-110381109D01*
X154101755Y-110522031D01*
X154045065Y-110652257D01*
X154035451Y-110667217D01*
X154028887Y-110677040D01*
X153913174Y-110877460D01*
X153824609Y-111091276D01*
X153824608Y-111091279D01*
X153764707Y-111314830D01*
X153764706Y-111314836D01*
X153734500Y-111544283D01*
X153734500Y-111775716D01*
X153764706Y-112005163D01*
X153764707Y-112005169D01*
X153824608Y-112228720D01*
X153824609Y-112228723D01*
X153913174Y-112442539D01*
X154028887Y-112642959D01*
X154035451Y-112652783D01*
X154096745Y-112780906D01*
X154119460Y-112921109D01*
X154101755Y-113062031D01*
X154045065Y-113192257D01*
X154035451Y-113207217D01*
X154028887Y-113217040D01*
X153913174Y-113417460D01*
X153824609Y-113631276D01*
X153824608Y-113631279D01*
X153764707Y-113854830D01*
X153764706Y-113854836D01*
X153734500Y-114084283D01*
X153734500Y-114315716D01*
X153764706Y-114545163D01*
X153764707Y-114545169D01*
X153824608Y-114768720D01*
X153824609Y-114768723D01*
X153913174Y-114982539D01*
X154028887Y-115182959D01*
X154035451Y-115192783D01*
X154096745Y-115320906D01*
X154119460Y-115461109D01*
X154101755Y-115602031D01*
X154045065Y-115732257D01*
X154035451Y-115747217D01*
X154028887Y-115757040D01*
X153913174Y-115957460D01*
X153824609Y-116171276D01*
X153824608Y-116171279D01*
X153764707Y-116394830D01*
X153764706Y-116394836D01*
X153734500Y-116624283D01*
X153734500Y-116855716D01*
X153764706Y-117085163D01*
X153764707Y-117085169D01*
X153824608Y-117308720D01*
X153824609Y-117308723D01*
X153913174Y-117522539D01*
X154028887Y-117722959D01*
X154035451Y-117732783D01*
X154096745Y-117860906D01*
X154119460Y-118001109D01*
X154101755Y-118142031D01*
X154045065Y-118272257D01*
X154035451Y-118287217D01*
X154028887Y-118297040D01*
X153913174Y-118497460D01*
X153824609Y-118711276D01*
X153824608Y-118711279D01*
X153764707Y-118934830D01*
X153764706Y-118934836D01*
X153734500Y-119164283D01*
X153734500Y-119395716D01*
X153764706Y-119625163D01*
X153764707Y-119625169D01*
X153824608Y-119848720D01*
X153824609Y-119848723D01*
X153913174Y-120062539D01*
X154028887Y-120262959D01*
X154035451Y-120272783D01*
X154096745Y-120400906D01*
X154119460Y-120541109D01*
X154101755Y-120682031D01*
X154045065Y-120812257D01*
X154035451Y-120827217D01*
X154028887Y-120837040D01*
X153913174Y-121037460D01*
X153824609Y-121251276D01*
X153824608Y-121251279D01*
X153764707Y-121474830D01*
X153764706Y-121474836D01*
X153734500Y-121704283D01*
X153734500Y-121935716D01*
X153764706Y-122165163D01*
X153764707Y-122165169D01*
X153824608Y-122388720D01*
X153824609Y-122388723D01*
X153913174Y-122602539D01*
X154028887Y-122802959D01*
X154035451Y-122812783D01*
X154096745Y-122940906D01*
X154119460Y-123081109D01*
X154101755Y-123222031D01*
X154045065Y-123352257D01*
X154035451Y-123367217D01*
X154028887Y-123377040D01*
X153913174Y-123577460D01*
X153824609Y-123791276D01*
X153824608Y-123791279D01*
X153764707Y-124014830D01*
X153764706Y-124014836D01*
X153734500Y-124244283D01*
X153734500Y-124475716D01*
X153764706Y-124705163D01*
X153764707Y-124705169D01*
X153824608Y-124928720D01*
X153824609Y-124928723D01*
X153913174Y-125142539D01*
X154028887Y-125342959D01*
X154035451Y-125352783D01*
X154096745Y-125480906D01*
X154119460Y-125621109D01*
X154101755Y-125762031D01*
X154045065Y-125892257D01*
X154035451Y-125907217D01*
X154028887Y-125917040D01*
X153913174Y-126117460D01*
X153824609Y-126331276D01*
X153824608Y-126331279D01*
X153764707Y-126554830D01*
X153764706Y-126554836D01*
X153734500Y-126784283D01*
X153734500Y-127015716D01*
X153764706Y-127245163D01*
X153764707Y-127245169D01*
X153824608Y-127468720D01*
X153824609Y-127468723D01*
X153913174Y-127682539D01*
X154028884Y-127882953D01*
X154028888Y-127882960D01*
X154028890Y-127882963D01*
X154028891Y-127882964D01*
X154169779Y-128066573D01*
X154333427Y-128230221D01*
X154517036Y-128371109D01*
X154517039Y-128371111D01*
X154517046Y-128371115D01*
X154717461Y-128486825D01*
X154717460Y-128486825D01*
X154931276Y-128575390D01*
X154931281Y-128575392D01*
X155154829Y-128635292D01*
X155154833Y-128635292D01*
X155154836Y-128635293D01*
X155240501Y-128646570D01*
X155384283Y-128665500D01*
X155384284Y-128665500D01*
X155615716Y-128665500D01*
X155615717Y-128665500D01*
X155845171Y-128635292D01*
X156068719Y-128575392D01*
X156193972Y-128523510D01*
X156282539Y-128486825D01*
X156418021Y-128408603D01*
X156482964Y-128371109D01*
X156666573Y-128230221D01*
X156830221Y-128066573D01*
X156971109Y-127882964D01*
X157008603Y-127818021D01*
X157086825Y-127682539D01*
X157175390Y-127468723D01*
X157175392Y-127468719D01*
X157235292Y-127245171D01*
X157265500Y-127015717D01*
X157265500Y-126784283D01*
X157235292Y-126554829D01*
X157175392Y-126331281D01*
X157149430Y-126268603D01*
X157086825Y-126117460D01*
X156971116Y-125917046D01*
X156964556Y-125907229D01*
X156903258Y-125779108D01*
X156880539Y-125638906D01*
X156898240Y-125497983D01*
X156954926Y-125367756D01*
X156964556Y-125352771D01*
X156971116Y-125342953D01*
X157086825Y-125142539D01*
X157175390Y-124928723D01*
X157175392Y-124928719D01*
X157235292Y-124705171D01*
X157265500Y-124475717D01*
X157265500Y-124244283D01*
X157235292Y-124014829D01*
X157175392Y-123791281D01*
X157175390Y-123791276D01*
X157086825Y-123577460D01*
X156971116Y-123377046D01*
X156964556Y-123367229D01*
X156903258Y-123239108D01*
X156880539Y-123098906D01*
X156898240Y-122957983D01*
X156954926Y-122827756D01*
X156964556Y-122812771D01*
X156971116Y-122802953D01*
X157086825Y-122602539D01*
X157140036Y-122474075D01*
X157175392Y-122388719D01*
X157235292Y-122165171D01*
X157265500Y-121935717D01*
X157265500Y-121704283D01*
X157235292Y-121474829D01*
X157175392Y-121251281D01*
X157162523Y-121220212D01*
X157086825Y-121037460D01*
X156971116Y-120837046D01*
X156964556Y-120827229D01*
X156903258Y-120699108D01*
X156880539Y-120558906D01*
X156898240Y-120417983D01*
X156954926Y-120287756D01*
X156964556Y-120272771D01*
X156971116Y-120262953D01*
X157086825Y-120062539D01*
X157175390Y-119848723D01*
X157175392Y-119848719D01*
X157235292Y-119625171D01*
X157265500Y-119395717D01*
X157265500Y-119164283D01*
X157235292Y-118934829D01*
X157175392Y-118711281D01*
X157162523Y-118680212D01*
X157086825Y-118497460D01*
X156971116Y-118297046D01*
X156964556Y-118287229D01*
X156903258Y-118159108D01*
X156880539Y-118018906D01*
X156898240Y-117877983D01*
X156954926Y-117747756D01*
X156964556Y-117732771D01*
X156971116Y-117722953D01*
X157086825Y-117522539D01*
X157175390Y-117308723D01*
X157175392Y-117308719D01*
X157235292Y-117085171D01*
X157265500Y-116855717D01*
X157265500Y-116624283D01*
X157251241Y-116515975D01*
X157252931Y-116373963D01*
X157294564Y-116238172D01*
X157372767Y-116119611D01*
X157481205Y-116027884D01*
X157611093Y-115970424D01*
X157751908Y-115951884D01*
X157892242Y-115973768D01*
X158020726Y-116034302D01*
X158098818Y-116098003D01*
X160053346Y-118052531D01*
X160138462Y-118166232D01*
X160188096Y-118299307D01*
X160199500Y-118405377D01*
X160199500Y-120002352D01*
X160231522Y-120204531D01*
X160250508Y-120262965D01*
X160294779Y-120399217D01*
X160294780Y-120399220D01*
X160305452Y-120420163D01*
X160305458Y-120420175D01*
X160387710Y-120581606D01*
X160387715Y-120581615D01*
X160508033Y-120747219D01*
X165312777Y-125551963D01*
X165312780Y-125551965D01*
X165312781Y-125551966D01*
X165478389Y-125672287D01*
X165513587Y-125690221D01*
X165660781Y-125765220D01*
X165758123Y-125796848D01*
X165855465Y-125828477D01*
X165855464Y-125828477D01*
X166057648Y-125860500D01*
X166262351Y-125860500D01*
X166567813Y-125860500D01*
X166708398Y-125880713D01*
X166837593Y-125939714D01*
X166871585Y-125963617D01*
X166997550Y-126060273D01*
X167201951Y-126178284D01*
X167420007Y-126268606D01*
X167647986Y-126329693D01*
X167647988Y-126329693D01*
X167647992Y-126329694D01*
X167791844Y-126348632D01*
X167881989Y-126360500D01*
X167881990Y-126360500D01*
X168118010Y-126360500D01*
X168118011Y-126360500D01*
X168339952Y-126331281D01*
X168352007Y-126329694D01*
X168352008Y-126329693D01*
X168352014Y-126329693D01*
X168579993Y-126268606D01*
X168798049Y-126178284D01*
X169002450Y-126060273D01*
X169128415Y-125963617D01*
X169252253Y-125894070D01*
X169390668Y-125862230D01*
X169432187Y-125860500D01*
X170442352Y-125860500D01*
X170644535Y-125828477D01*
X170741876Y-125796848D01*
X170839219Y-125765220D01*
X170986413Y-125690221D01*
X171021611Y-125672287D01*
X171187219Y-125551966D01*
X172891189Y-123847996D01*
X175650000Y-123847996D01*
X175660609Y-123967329D01*
X175716558Y-124162862D01*
X175716560Y-124162868D01*
X175810720Y-124343127D01*
X175810722Y-124343131D01*
X175939246Y-124500753D01*
X176096868Y-124629277D01*
X176096872Y-124629279D01*
X176277131Y-124723439D01*
X176277137Y-124723441D01*
X176472670Y-124779390D01*
X176592003Y-124790000D01*
X177000000Y-124790000D01*
X178000000Y-124790000D01*
X178407997Y-124790000D01*
X178527329Y-124779390D01*
X178722862Y-124723441D01*
X178722868Y-124723439D01*
X178903127Y-124629279D01*
X178903131Y-124629277D01*
X179060753Y-124500753D01*
X179189277Y-124343131D01*
X179189279Y-124343127D01*
X179283439Y-124162868D01*
X179283441Y-124162862D01*
X179339390Y-123967329D01*
X179350000Y-123847996D01*
X179350000Y-123440000D01*
X178000000Y-123440000D01*
X178000000Y-124790000D01*
X177000000Y-124790000D01*
X177000000Y-123440000D01*
X175650000Y-123440000D01*
X175650000Y-123847996D01*
X172891189Y-123847996D01*
X174798154Y-121941031D01*
X174812491Y-121930298D01*
X174824224Y-121916758D01*
X174869128Y-121887900D01*
X174911855Y-121855915D01*
X174928639Y-121849654D01*
X174943708Y-121839971D01*
X174994919Y-121824933D01*
X175044930Y-121806281D01*
X175062796Y-121805003D01*
X175079985Y-121799956D01*
X175133359Y-121799956D01*
X175186598Y-121796148D01*
X175204103Y-121799956D01*
X175222015Y-121799956D01*
X175273223Y-121814992D01*
X175325383Y-121826339D01*
X175341107Y-121834924D01*
X175358292Y-121839971D01*
X175403189Y-121868824D01*
X175450040Y-121894407D01*
X175462706Y-121907073D01*
X175477776Y-121916758D01*
X175512730Y-121957097D01*
X175550470Y-121994837D01*
X175559054Y-122010557D01*
X175570786Y-122024097D01*
X175592959Y-122072650D01*
X175618538Y-122119494D01*
X175622345Y-122136997D01*
X175629787Y-122153292D01*
X175637382Y-122206120D01*
X175648729Y-122258279D01*
X175650000Y-122293877D01*
X175650000Y-122440000D01*
X177434174Y-122440000D01*
X177307007Y-122474075D01*
X177192993Y-122539901D01*
X177099901Y-122632993D01*
X177034075Y-122747007D01*
X177000000Y-122874174D01*
X177000000Y-123005826D01*
X177034075Y-123132993D01*
X177099901Y-123247007D01*
X177192993Y-123340099D01*
X177307007Y-123405925D01*
X177434174Y-123440000D01*
X177565826Y-123440000D01*
X177692993Y-123405925D01*
X177807007Y-123340099D01*
X177900099Y-123247007D01*
X177965925Y-123132993D01*
X178000000Y-123005826D01*
X178000000Y-122874174D01*
X177965925Y-122747007D01*
X177900099Y-122632993D01*
X177807007Y-122539901D01*
X177692993Y-122474075D01*
X177565826Y-122440000D01*
X179350000Y-122440000D01*
X179350000Y-122032003D01*
X179339390Y-121912670D01*
X179283441Y-121717137D01*
X179283437Y-121717128D01*
X179209524Y-121575628D01*
X179162349Y-121441661D01*
X179154829Y-121299830D01*
X179187571Y-121161625D01*
X179190750Y-121153757D01*
X179256054Y-120996100D01*
X179318838Y-120761789D01*
X179350500Y-120521288D01*
X179350500Y-120278712D01*
X179318838Y-120038211D01*
X179256054Y-119803900D01*
X179163224Y-119579788D01*
X179047587Y-119379499D01*
X178994800Y-119247645D01*
X178981299Y-119106258D01*
X179008178Y-118966795D01*
X179047588Y-118880499D01*
X179163224Y-118680212D01*
X179256054Y-118456100D01*
X179318838Y-118221789D01*
X179350500Y-117981288D01*
X179350500Y-117738712D01*
X179318838Y-117498211D01*
X179256054Y-117263900D01*
X179163224Y-117039788D01*
X179041936Y-116829711D01*
X179041935Y-116829709D01*
X179041933Y-116829706D01*
X178894271Y-116637269D01*
X178894260Y-116637257D01*
X178722742Y-116465739D01*
X178722730Y-116465728D01*
X178530293Y-116318066D01*
X178530284Y-116318061D01*
X178320211Y-116196775D01*
X178096104Y-116103947D01*
X178096101Y-116103946D01*
X177861787Y-116041161D01*
X177861781Y-116041160D01*
X177636520Y-116011505D01*
X177499776Y-115973115D01*
X177379387Y-115897756D01*
X177348805Y-115869620D01*
X174887222Y-113408036D01*
X174887219Y-113408033D01*
X174721615Y-113287715D01*
X174630412Y-113241245D01*
X174630412Y-113241244D01*
X174539222Y-113194781D01*
X174531454Y-113192257D01*
X174441876Y-113163151D01*
X174441874Y-113163150D01*
X174344536Y-113131523D01*
X174344534Y-113131522D01*
X174142352Y-113099500D01*
X169799500Y-113099500D01*
X169658915Y-113079287D01*
X169529720Y-113020286D01*
X169422381Y-112927276D01*
X169345594Y-112807792D01*
X169305579Y-112671515D01*
X169300500Y-112600500D01*
X169300500Y-108145375D01*
X169320713Y-108004790D01*
X169379714Y-107875595D01*
X169446649Y-107792534D01*
X170016264Y-107222919D01*
X172484185Y-107222919D01*
X172613525Y-107297593D01*
X172855746Y-107397925D01*
X173108975Y-107465777D01*
X173108993Y-107465780D01*
X173368914Y-107500000D01*
X173631086Y-107500000D01*
X173891006Y-107465780D01*
X173891024Y-107465777D01*
X174144253Y-107397925D01*
X174386476Y-107297592D01*
X174515812Y-107222919D01*
X173500000Y-106207106D01*
X173499999Y-106207106D01*
X172484185Y-107222919D01*
X170016264Y-107222919D01*
X170931563Y-106307620D01*
X171045257Y-106222510D01*
X171178332Y-106172876D01*
X171320000Y-106162743D01*
X171458785Y-106192934D01*
X171583442Y-106261002D01*
X171683872Y-106361432D01*
X171716549Y-106410973D01*
X171777078Y-106515812D01*
X172858718Y-105434174D01*
X173000000Y-105434174D01*
X173000000Y-105565826D01*
X173034075Y-105692993D01*
X173099901Y-105807007D01*
X173192993Y-105900099D01*
X173307007Y-105965925D01*
X173434174Y-106000000D01*
X173565826Y-106000000D01*
X173692993Y-105965925D01*
X173807007Y-105900099D01*
X173900099Y-105807007D01*
X173965925Y-105692993D01*
X174000000Y-105565826D01*
X174000000Y-105499999D01*
X174207106Y-105499999D01*
X175222919Y-106515812D01*
X175297592Y-106386476D01*
X175397925Y-106144253D01*
X175465777Y-105891024D01*
X175465780Y-105891006D01*
X175500000Y-105631086D01*
X175500000Y-105368913D01*
X175465780Y-105108993D01*
X175465777Y-105108975D01*
X175397925Y-104855746D01*
X175297593Y-104613525D01*
X175222919Y-104484185D01*
X174207106Y-105499999D01*
X174000000Y-105499999D01*
X174000000Y-105434174D01*
X173965925Y-105307007D01*
X173900099Y-105192993D01*
X173807007Y-105099901D01*
X173692993Y-105034075D01*
X173565826Y-105000000D01*
X173434174Y-105000000D01*
X173307007Y-105034075D01*
X173192993Y-105099901D01*
X173099901Y-105192993D01*
X173034075Y-105307007D01*
X173000000Y-105434174D01*
X172858718Y-105434174D01*
X173146447Y-105146446D01*
X173352432Y-104940461D01*
X174515812Y-103777078D01*
X174410973Y-103716549D01*
X174299329Y-103628752D01*
X174216943Y-103513058D01*
X174170490Y-103378839D01*
X174163731Y-103236970D01*
X174197216Y-103098943D01*
X174268231Y-102975941D01*
X174307613Y-102931570D01*
X183347215Y-93891968D01*
X183347219Y-93891966D01*
X183491966Y-93747219D01*
X183612287Y-93581610D01*
X183705220Y-93399219D01*
X183705221Y-93399218D01*
X183768477Y-93204534D01*
X183795680Y-93032781D01*
X183800500Y-93002352D01*
X183800500Y-82797648D01*
X183768477Y-82595466D01*
X183768474Y-82595459D01*
X183768474Y-82595455D01*
X183705222Y-82400786D01*
X183705219Y-82400779D01*
X183626708Y-82246693D01*
X183626704Y-82246685D01*
X183624946Y-82243235D01*
X183612287Y-82218389D01*
X183491966Y-82052781D01*
X183491965Y-82052780D01*
X183491963Y-82052777D01*
X169847219Y-68408033D01*
X169681615Y-68287715D01*
X169590412Y-68241245D01*
X169590412Y-68241244D01*
X169499222Y-68194781D01*
X169499210Y-68194777D01*
X169401876Y-68163151D01*
X169401874Y-68163150D01*
X169304536Y-68131523D01*
X169304534Y-68131522D01*
X169102352Y-68099500D01*
X128102352Y-68099500D01*
X127897648Y-68099500D01*
X127836635Y-68109163D01*
X127695470Y-68131522D01*
X127695455Y-68131525D01*
X127500786Y-68194777D01*
X127500774Y-68194782D01*
X127318403Y-68287705D01*
X127318390Y-68287713D01*
X127152775Y-68408038D01*
X127152774Y-68408040D01*
X127008040Y-68552774D01*
X127008038Y-68552775D01*
X126887713Y-68718390D01*
X126887705Y-68718403D01*
X126794782Y-68900774D01*
X126794777Y-68900786D01*
X126731525Y-69095455D01*
X126731522Y-69095470D01*
X126699500Y-69297648D01*
X120750500Y-69297648D01*
X120750500Y-66378450D01*
X122645500Y-66378450D01*
X122645500Y-66621549D01*
X122677229Y-66862564D01*
X122677231Y-66862574D01*
X122740149Y-67097385D01*
X122740152Y-67097393D01*
X122833181Y-67321986D01*
X122954726Y-67532508D01*
X122954736Y-67532523D01*
X123102721Y-67725380D01*
X123274619Y-67897278D01*
X123467476Y-68045263D01*
X123467484Y-68045269D01*
X123467491Y-68045273D01*
X123678013Y-68166818D01*
X123745512Y-68194777D01*
X123902612Y-68259850D01*
X124137429Y-68322769D01*
X124137431Y-68322769D01*
X124137435Y-68322770D01*
X124285601Y-68342276D01*
X124378450Y-68354500D01*
X124378451Y-68354500D01*
X124621549Y-68354500D01*
X124621550Y-68354500D01*
X124772583Y-68334616D01*
X124862564Y-68322770D01*
X124862565Y-68322769D01*
X124862571Y-68322769D01*
X125097388Y-68259850D01*
X125321984Y-68166819D01*
X125532516Y-68045269D01*
X125725380Y-67897278D01*
X125897278Y-67725380D01*
X126045269Y-67532516D01*
X126166819Y-67321984D01*
X126259850Y-67097388D01*
X126322769Y-66862571D01*
X126354500Y-66621550D01*
X126354500Y-66378450D01*
X183645500Y-66378450D01*
X183645500Y-66621549D01*
X183677229Y-66862564D01*
X183677231Y-66862574D01*
X183740149Y-67097385D01*
X183740152Y-67097393D01*
X183833181Y-67321986D01*
X183954726Y-67532508D01*
X183954736Y-67532523D01*
X184102721Y-67725380D01*
X184274619Y-67897278D01*
X184467476Y-68045263D01*
X184467484Y-68045269D01*
X184467491Y-68045273D01*
X184678013Y-68166818D01*
X184745512Y-68194777D01*
X184902612Y-68259850D01*
X185137429Y-68322769D01*
X185137431Y-68322769D01*
X185137435Y-68322770D01*
X185285601Y-68342276D01*
X185378450Y-68354500D01*
X185378451Y-68354500D01*
X185621549Y-68354500D01*
X185621550Y-68354500D01*
X185772583Y-68334616D01*
X185862564Y-68322770D01*
X185862565Y-68322769D01*
X185862571Y-68322769D01*
X186097388Y-68259850D01*
X186321984Y-68166819D01*
X186532516Y-68045269D01*
X186725380Y-67897278D01*
X186897278Y-67725380D01*
X187045269Y-67532516D01*
X187166819Y-67321984D01*
X187259850Y-67097388D01*
X187322769Y-66862571D01*
X187354500Y-66621550D01*
X187354500Y-66378450D01*
X187322769Y-66137429D01*
X187259850Y-65902612D01*
X187166819Y-65678016D01*
X187166818Y-65678013D01*
X187045273Y-65467491D01*
X187045269Y-65467484D01*
X187045263Y-65467476D01*
X186897278Y-65274619D01*
X186725380Y-65102721D01*
X186532523Y-64954736D01*
X186532519Y-64954733D01*
X186532516Y-64954731D01*
X186532512Y-64954728D01*
X186532508Y-64954726D01*
X186321986Y-64833181D01*
X186097393Y-64740152D01*
X186097385Y-64740149D01*
X185862574Y-64677231D01*
X185862564Y-64677229D01*
X185647770Y-64648951D01*
X185621550Y-64645500D01*
X185378450Y-64645500D01*
X185354802Y-64648613D01*
X185137435Y-64677229D01*
X185137425Y-64677231D01*
X184902614Y-64740149D01*
X184902606Y-64740152D01*
X184678013Y-64833181D01*
X184467491Y-64954726D01*
X184467476Y-64954736D01*
X184274619Y-65102721D01*
X184102721Y-65274619D01*
X183954736Y-65467476D01*
X183954726Y-65467491D01*
X183833181Y-65678013D01*
X183740152Y-65902606D01*
X183740149Y-65902614D01*
X183677231Y-66137425D01*
X183677229Y-66137435D01*
X183645500Y-66378450D01*
X126354500Y-66378450D01*
X126322769Y-66137429D01*
X126259850Y-65902612D01*
X126166819Y-65678016D01*
X126166818Y-65678013D01*
X126045273Y-65467491D01*
X126045269Y-65467484D01*
X126045263Y-65467476D01*
X125897278Y-65274619D01*
X125725380Y-65102721D01*
X125532523Y-64954736D01*
X125532519Y-64954733D01*
X125532516Y-64954731D01*
X125532512Y-64954728D01*
X125532508Y-64954726D01*
X125321986Y-64833181D01*
X125097393Y-64740152D01*
X125097385Y-64740149D01*
X124862574Y-64677231D01*
X124862564Y-64677229D01*
X124647770Y-64648951D01*
X124621550Y-64645500D01*
X124378450Y-64645500D01*
X124354802Y-64648613D01*
X124137435Y-64677229D01*
X124137425Y-64677231D01*
X123902614Y-64740149D01*
X123902606Y-64740152D01*
X123678013Y-64833181D01*
X123467491Y-64954726D01*
X123467476Y-64954736D01*
X123274619Y-65102721D01*
X123102721Y-65274619D01*
X122954736Y-65467476D01*
X122954726Y-65467491D01*
X122833181Y-65678013D01*
X122740152Y-65902606D01*
X122740149Y-65902614D01*
X122677231Y-66137425D01*
X122677229Y-66137435D01*
X122645500Y-66378450D01*
X120750500Y-66378450D01*
X120750500Y-63249500D01*
X120770713Y-63108915D01*
X120829714Y-62979720D01*
X120922724Y-62872381D01*
X121042208Y-62795594D01*
X121178485Y-62755579D01*
X121249500Y-62750500D01*
X188750500Y-62750500D01*
X188891085Y-62770713D01*
G37*
%TD.AperFunction*%
%TD*%
M02*
